<?xml version="1.0" encoding="utf-8"?>
<!-- Generated by IcoMoon.io -->
<!DOCTYPE svg PUBLIC "-//W3C//DTD SVG 1.1//EN" "http://www.w3.org/Graphics/SVG/1.1/DTD/svg11.dtd">
<svg version="1.1" xmlns="http://www.w3.org/2000/svg" xmlns:xlink="http://www.w3.org/1999/xlink" width="1024" height="1024" viewBox="0 0 1024 1024">
<path fill="#000000" d="M895.998 159.744h-768c-53.248 0-96.256 45.056-96.256 100.352v503.808c0 55.296 43.008 100.352 96.256 100.352h768c53.248 0 96.256-45.056 96.256-100.352v-503.808c0-55.296-43.008-100.352-96.256-100.352zM895.998 768h-768v-512h768v512zM512 352.256h-319.488v63.488h319.488v-63.488zM512 480.256h-319.488v63.488h319.488v-63.488zM512 608.256h-319.488v63.488h319.488v-63.488zM601.088 500.736c3.072 45.056 19.456 25.6 23.552 45.056 8.192 47.104 27.648 38.912 27.648 64.512 0 27.648-9.216 46.080-32.768 61.44h168.96c-23.552-15.36-32.768-33.792-32.768-61.44 0-25.6 19.456-17.408 27.648-64.512 4.096-19.456 20.48 0 23.552-45.056 0-17.408-9.216-21.504-9.216-21.504s5.12-26.624 6.144-47.104c3.072-24.576-13.314-90.112-99.328-90.112s-103.424 65.536-100.352 90.112c1.024 20.48 6.144 47.104 6.144 47.104s-9.216 4.096-9.216 21.504z"></path>
</svg>
