<?xml version="1.0" encoding="utf-8"?>
<!-- Generated by IcoMoon.io -->
<!DOCTYPE svg PUBLIC "-//W3C//DTD SVG 1.1//EN" "http://www.w3.org/Graphics/SVG/1.1/DTD/svg11.dtd">
<svg version="1.1" xmlns="http://www.w3.org/2000/svg" xmlns:xlink="http://www.w3.org/1999/xlink" width="1024" height="1024" viewBox="0 0 1024 1024">
<path fill="#000000" d="M906.24 531.456h-22.528v191.488h22.528c20.48 0 37.888-17.408 37.888-37.888v-115.712c0-20.48-17.408-37.888-37.888-37.888zM906.24 761.856h-22.528v191.488h22.528c20.48 0 37.888-16.384 37.888-37.888v-115.712c0-20.48-17.408-37.888-37.888-37.888zM906.24 301.056h-22.528v191.488h22.528c20.48 0 37.888-17.408 37.888-37.888v-115.712c0-21.504-17.408-37.888-37.888-37.888zM906.24 70.656h-37.888c0-21.504-17.408-38.912-37.888-38.912h-680.96c-20.48 0-37.888 17.408-37.888 38.912v882.688c0 21.504 17.408 38.912 37.888 38.912h680.96c20.48 0 37.888-17.408 37.888-38.912v-691.2h37.888c20.48 0 37.888-17.408 37.888-37.888v-115.712c0-20.48-17.408-37.888-37.888-37.888zM471.040 301.056c69.632 0 124.928 52.224 124.928 117.76s-55.296 118.784-124.928 118.784-124.928-53.248-124.928-118.784c0-65.536 56.32-117.76 124.928-117.76zM678.912 761.856h-415.744v-34.816c0-56.32 56.32-169.984 124.928-169.984h166.912c68.608 0 123.904 113.664 123.904 169.984v34.816z"></path>
</svg>
