<?xml version="1.0" encoding="utf-8"?>
<!-- Generated by IcoMoon.io -->
<!DOCTYPE svg PUBLIC "-//W3C//DTD SVG 1.1//EN" "http://www.w3.org/Graphics/SVG/1.1/DTD/svg11.dtd">
<svg version="1.1" xmlns="http://www.w3.org/2000/svg" xmlns:xlink="http://www.w3.org/1999/xlink" width="1024" height="1024" viewBox="0 0 1024 1024">
<path fill="#000000" d="M584.704 785.408v-108.544q0-8.192-5.12-13.312t-12.288-5.12h-110.592q-7.168 0-12.288 5.12t-5.12 13.312v108.544q0 8.192 5.12 13.312t12.288 6.144h110.592q7.168 0 12.288-6.144t5.12-13.312zM583.68 572.416l10.24-263.168q0-6.144-5.12-10.24-7.168-6.144-14.336-6.144h-124.928q-7.168 0-14.336 6.144-5.12 4.096-5.12 12.288l9.216 261.12q0 5.12 6.144 9.216t13.312 3.072h105.472q8.192 0 13.312-3.072t6.144-9.216zM576.512 37.888l438.272 804.864q20.48 35.84-1.024 71.68-10.24 17.408-26.624 26.624t-35.84 10.24h-878.592q-18.432 0-35.84-10.24t-26.624-26.624q-21.504-35.84-1.024-71.68l439.296-804.864q9.216-17.408 26.624-27.648t36.864-10.24 36.864 10.24 27.648 27.648z"></path>
</svg>
