<?xml version="1.0" encoding="utf-8"?>
<!-- Generated by IcoMoon.io -->
<!DOCTYPE svg PUBLIC "-//W3C//DTD SVG 1.1//EN" "http://www.w3.org/Graphics/SVG/1.1/DTD/svg11.dtd">
<svg version="1.1" xmlns="http://www.w3.org/2000/svg" xmlns:xlink="http://www.w3.org/1999/xlink" width="1024" height="1024" viewBox="0 0 1024 1024">
<path fill="#000000" d="M912.384 992.256v-79.872h79.872v79.872h-79.872zM912.384 31.744h79.872v799.744h-79.872v-799.744zM792.576 912.384h79.872v79.872h-79.872v-79.872zM792.576 31.744h79.872v799.744h-79.872v-799.744zM551.936 912.384h159.744v79.872h-159.744v-79.872zM671.744 31.744h39.936v799.744h-39.936v-799.744zM512 31.744h79.872v799.744h-79.872v-799.744zM392.192 912.384h79.872v79.872h-79.872v-79.872zM312.32 31.744h119.808v799.744h-119.808v-799.744zM151.552 912.384h80.896v79.872h-80.896v-79.872zM151.552 31.744h80.896v799.744h-80.896v-799.744zM31.744 912.384h79.872v79.872h-79.872v-79.872zM31.744 31.744h79.872v799.744h-79.872v-799.744zM352.256 992.256h-39.936v-79.872h39.936v79.872z"></path>
</svg>
