<?xml version="1.0" encoding="utf-8"?>
<!-- Generated by IcoMoon.io -->
<!DOCTYPE svg PUBLIC "-//W3C//DTD SVG 1.1//EN" "http://www.w3.org/Graphics/SVG/1.1/DTD/svg11.dtd">
<svg version="1.1" xmlns="http://www.w3.org/2000/svg" xmlns:xlink="http://www.w3.org/1999/xlink" width="1024" height="1024" viewBox="0 0 1024 1024">
<path fill="#000000" d="M219.136 877.568q0-29.696-21.504-51.2t-51.2-21.504-52.224 21.504-21.504 51.2 21.504 52.224 52.224 21.504 51.2-21.504 21.504-52.224zM439.296 877.568q0-29.696-21.504-51.2t-52.224-21.504-51.2 21.504-21.504 51.2 21.504 52.224 51.2 21.504 52.224-21.504 21.504-52.224zM219.136 658.432q0-30.72-21.504-52.224t-51.2-21.504-52.224 21.504-21.504 52.224 21.504 51.2 52.224 21.504 51.2-21.504 21.504-51.2zM658.432 877.568q0-29.696-21.504-51.2t-52.224-21.504-51.2 21.504-21.504 51.2 21.504 52.224 51.2 21.504 52.224-21.504 21.504-52.224zM439.296 658.432q0-30.72-21.504-52.224t-52.224-21.504-51.2 21.504-21.504 52.224 21.504 51.2 51.2 21.504 52.224-21.504 21.504-51.2zM219.136 439.296q0-30.72-21.504-52.224t-51.2-21.504-52.224 21.504-21.504 52.224 21.504 51.2 52.224 21.504 51.2-21.504 21.504-51.2zM658.432 658.432q0-30.72-21.504-52.224t-52.224-21.504-51.2 21.504-21.504 52.224 21.504 51.2 51.2 21.504 52.224-21.504 21.504-51.2zM439.296 439.296q0-30.72-21.504-52.224t-52.224-21.504-51.2 21.504-21.504 52.224 21.504 51.2 51.2 21.504 52.224-21.504 21.504-51.2zM877.568 877.568v-219.136q0-29.696-21.504-51.2t-51.2-22.528-52.224 22.528-21.504 51.2v219.136q0 29.696 21.504 51.2t52.224 22.528 51.2-22.528 21.504-51.2zM658.432 439.296q0-30.72-21.504-52.224t-52.224-21.504-51.2 21.504-21.504 52.224 21.504 51.2 51.2 21.504 52.224-21.504 21.504-51.2zM877.568 256v-146.432q0-14.336-10.24-25.6t-26.624-11.264h-731.136q-14.336 0-25.6 11.264t-11.264 25.6v146.432q0 15.36 11.264 25.6t25.6 11.264h731.136q15.36 0 26.624-11.264t10.24-25.6zM877.568 439.296q0-30.72-21.504-52.224t-51.2-21.504-52.224 21.504-21.504 52.224 21.504 51.2 52.224 21.504 51.2-21.504 21.504-51.2zM951.296 72.704v878.592q0 29.696-22.528 51.2t-51.2 21.504h-804.864q-29.696 0-51.2-21.504t-21.504-51.2v-878.592q0-29.696 21.504-51.2t51.2-21.504h804.864q29.696 0 51.2 21.504t22.528 51.2z"></path>
</svg>
