<?xml version="1.0" encoding="utf-8"?>
<!-- Generated by IcoMoon.io -->
<!DOCTYPE svg PUBLIC "-//W3C//DTD SVG 1.1//EN" "http://www.w3.org/Graphics/SVG/1.1/DTD/svg11.dtd">
<svg version="1.1" xmlns="http://www.w3.org/2000/svg" xmlns:xlink="http://www.w3.org/1999/xlink" width="1024" height="1024" viewBox="0 0 1024 1024">
<path fill="#000000" d="M608.256 463.872v-287.744c0-35.84-28.672-64.512-64.512-64.512h-447.488c-35.84 0-64.512 28.672-64.512 64.512v287.744c0 35.84 28.672 64.512 64.512 64.512h31.744v159.744l159.744-159.744h256c35.84 0 64.512-28.672 64.512-64.512zM512 463.872h-239.616l-90.112 90.112v-90.112h-54.272c-17.408 0-31.744-14.336-31.744-31.744v-224.256c0-17.408 14.336-31.744 31.744-31.744h384c17.408 0 31.744 14.336 31.744 31.744v224.256c0 17.408-14.336 31.744-31.744 31.744zM927.744 335.872h-256v64.512h224.256c17.408 0 31.744 14.336 31.744 31.744v224.256c0 17.408-14.336 31.744-31.744 31.744h-54.272v90.112l-90.112-90.112h-239.616c-17.408 0-31.744-14.336-31.744-31.744v-64.512h-64.512v96.256c0 34.816 28.672 63.488 64.512 63.488h256l159.744 160.768v-160.768h31.744c35.84 0 64.512-28.672 64.512-63.488v-287.744c0-35.84-28.672-64.512-64.512-64.512z"></path>
</svg>
