<?xml version="1.0" encoding="utf-8"?>
<!-- Generated by IcoMoon.io -->
<!DOCTYPE svg PUBLIC "-//W3C//DTD SVG 1.1//EN" "http://www.w3.org/Graphics/SVG/1.1/DTD/svg11.dtd">
<svg version="1.1" xmlns="http://www.w3.org/2000/svg" xmlns:xlink="http://www.w3.org/1999/xlink" width="1024" height="1024" viewBox="0 0 1024 1024">
<path fill="#000000" d="M956.416 802.816l-281.6-290.816 281.6-290.816c47.104-43.008 47.104-113.664 0-156.672-48.128-43.008-125.952-43.008-174.080 0l-270.336 279.552-270.336-279.552c-48.128-43.008-125.952-43.008-174.080 0-47.104 43.008-47.104 113.664 0 156.672l281.6 290.816-281.6 290.816c-47.104 43.008-47.104 113.664 0 156.672 48.128 43.008 125.952 43.008 174.080 0l270.336-279.552 270.336 279.552c48.128 43.008 125.952 43.008 174.080 0 47.104-43.008 47.104-113.664 0-156.672z"></path>
</svg>
