<?xml version="1.0" encoding="utf-8"?>
<!-- Generated by IcoMoon.io -->
<!DOCTYPE svg PUBLIC "-//W3C//DTD SVG 1.1//EN" "http://www.w3.org/Graphics/SVG/1.1/DTD/svg11.dtd">
<svg version="1.1" xmlns="http://www.w3.org/2000/svg" xmlns:xlink="http://www.w3.org/1999/xlink" width="1024" height="1024" viewBox="0 0 1024 1024">
<path fill="#000000" d="M920.576 830.464h-275.456v86.016l144.384 21.504-130.048 22.528h-262.144l-131.072-22.528 144.384-21.504v-86.016h-275.456c-48.128 0-87.040-38.912-87.040-86.016v-562.176c0-48.128 38.912-86.016 87.040-86.016h785.408c48.128 0 87.040 37.888 87.040 86.016v562.176c0 47.104-38.912 86.016-87.040 86.016zM964.608 225.28c0-23.552-19.456-43.008-44.032-43.008h-785.408c-23.552 0-43.008 19.456-43.008 43.008v432.128c0 23.552 19.456 43.008 43.008 43.008h785.408c24.576 0 44.032-19.456 44.032-43.008v-432.128z"></path>
</svg>
