<?xml version="1.0" encoding="utf-8"?>
<!-- Generated by IcoMoon.io -->
<!DOCTYPE svg PUBLIC "-//W3C//DTD SVG 1.1//EN" "http://www.w3.org/Graphics/SVG/1.1/DTD/svg11.dtd">
<svg version="1.1" xmlns="http://www.w3.org/2000/svg" xmlns:xlink="http://www.w3.org/1999/xlink" width="1024" height="1024" viewBox="0 0 1024 1024">
<path fill="#000000" d="M382.976 992.256l376.832-467.968c68.608 39.936 119.808 212.992 119.808 284.672v183.296h-496.64zM506.88 131.072c-108.544 0-216.064 19.456-216.064 19.456v0c0-60.416 50.176-109.568 110.592-109.568 0 0 55.296-9.216 108.544-9.216 57.344 0 112.64 9.216 112.64 9.216 60.416 0 110.592 49.152 110.592 109.568v0c0 0-113.664-19.456-226.304-19.456zM309.248 224.256c0-13.312 2.048-25.6 4.096-36.864 0 0 95.232-10.24 192.512-10.24 101.376 0 204.8 10.24 204.8 10.24 2.048 11.264 4.096 23.552 4.096 36.864 0 120.832-93.184 256-202.752 256s-202.752-135.168-202.752-256zM677.888 516.096l-382.976 476.16h-150.528v-183.296c0-80.896 65.536-292.864 146.432-292.864h387.072z"></path>
</svg>
