<?xml version="1.0" encoding="utf-8"?>
<!-- Generated by IcoMoon.io -->
<!DOCTYPE svg PUBLIC "-//W3C//DTD SVG 1.1//EN" "http://www.w3.org/Graphics/SVG/1.1/DTD/svg11.dtd">
<svg version="1.1" xmlns="http://www.w3.org/2000/svg" xmlns:xlink="http://www.w3.org/1999/xlink" width="1280" height="1024" viewBox="0 0 1280 1024">
<path fill="#000000" d="M271.36 96.256h-64.512v156.672h64.512v-156.672zM685.056 96.256h-64.512v156.672h64.512v-156.672zM768 188.416h-41.984v92.16h-146.432v-92.16h-267.264v92.16h-146.432v-92.16h-41.984c-50.176 0-92.16 40.96-92.16 92.16v552.96c0 50.176 41.984 92.16 92.16 92.16h644.096c50.176 0 91.136-41.984 91.136-92.16v-552.96c0-51.2-40.96-92.16-91.136-92.16zM768 833.536h-644.096v-368.64h644.096v368.64zM1149.952 768v-494.592h-108.544v494.592h-98.304l152.576 159.744 152.576-159.744h-98.304z"></path>
</svg>
