<?xml version="1.0" encoding="utf-8"?>
<!-- Generated by IcoMoon.io -->
<!DOCTYPE svg PUBLIC "-//W3C//DTD SVG 1.1//EN" "http://www.w3.org/Graphics/SVG/1.1/DTD/svg11.dtd">
<svg version="1.1" xmlns="http://www.w3.org/2000/svg" xmlns:xlink="http://www.w3.org/1999/xlink" width="1024" height="1024" viewBox="0 0 1024 1024">
<path fill="#000000" d="M962.56 955.392h-37.888c-16.384 0-28.672-13.312-28.672-29.696v-187.392c0-16.384 12.288-30.72 28.672-30.72h37.888c16.384 0 29.696 14.336 29.696 30.72v187.392c0 16.384-13.312 29.696-29.696 29.696zM630.784 960.512c-68.608 0-113.664-28.672-140.288-51.2-26.624-23.552 9.216-59.392 31.744-43.008 21.504 16.384 51.2 22.528 81.92 20.48 30.72-1.024 64.512-29.696 71.68-64.512 5.12-31.744 12.288-46.080-90.112-75.776-60.416-16.384-36.864-58.368 13.312-54.272 50.176 5.12 94.208 16.384 129.024 20.48 33.792 4.096 129.024 36.864 129.024 51.2 0 40.96 0 125.952 0 125.952s-20.48 1.024-46.080 16.384c-26.624 14.336-112.64 54.272-180.224 54.272zM325.632 724.992v-92.16l-29.696 2.048 44.032-64.512 44.032 57.344-28.672 2.048v93.184l-29.696 2.048zM526.336 756.736l-253.952 22.528v-30.72l253.952-22.528v30.72zM443.392 714.752v-92.16l-29.696 2.048 44.032-64.512 44.032 57.344-29.696 2.048v93.184l-28.672 2.048zM821.248 231.424l-260.096 20.48v116.736l-83.968 5.12v-114.688l-264.192 20.48 2.048 559.104 420.864-39.936c-1.024 13.312-6.144 26.624-14.336 37.888l-436.224 43.008-153.6-208.896 1.024-570.368 574.464-36.864 241.664 120.832v521.216c-7.168-5.12-16.384-6.144-27.648-12.288v-461.824zM93.184 136.192l102.4 98.304 256-20.48-116.736-93.184-241.664 15.36zM601.088 101.376l-179.2 11.264 129.024 88.064 218.112-17.408-167.936-81.92z"></path>
</svg>
