<?xml version="1.0" encoding="utf-8"?>
<!-- Generated by IcoMoon.io -->
<!DOCTYPE svg PUBLIC "-//W3C//DTD SVG 1.1//EN" "http://www.w3.org/Graphics/SVG/1.1/DTD/svg11.dtd">
<svg version="1.1" xmlns="http://www.w3.org/2000/svg" xmlns:xlink="http://www.w3.org/1999/xlink" width="1024" height="1024" viewBox="0 0 1024 1024">
<path fill="#000000" d="M963.584 388.096l-357.376-96.256-62.464-233.472c-6.144-19.456-26.624-30.72-47.104-24.576l-435.2 116.736c-21.504 5.12-33.792 25.6-28.672 45.056l155.648 578.56c5.12 19.456 25.6 30.72 46.080 24.576l174.080-46.080-23.552 88.064c-5.12 19.456 7.168 39.936 27.648 46.080l389.12 104.448c20.48 5.12 40.96-6.144 46.080-25.6l143.36-532.48c5.12-19.456-7.168-39.936-27.648-45.056zM110.592 205.824l375.808-100.352 139.264 519.168-375.808 101.376-139.264-520.192zM784.384 918.528l-326.656-90.112 25.6-96.256 187.392-50.176c20.48-5.12 32.768-25.6 27.648-45.056l-72.704-270.336 285.696 78.848-126.976 473.088z"></path>
</svg>
