<?xml version="1.0" encoding="utf-8"?>
<!-- Generated by IcoMoon.io -->
<!DOCTYPE svg PUBLIC "-//W3C//DTD SVG 1.1//EN" "http://www.w3.org/Graphics/SVG/1.1/DTD/svg11.dtd">
<svg version="1.1" xmlns="http://www.w3.org/2000/svg" xmlns:xlink="http://www.w3.org/1999/xlink" width="1280" height="1024" viewBox="0 0 1280 1024">
<path fill="#000000" d="M1188.864 873.472v-722.944c0-6.144-5.12-10.24-10.24-10.24h-10.24l-105.472-44.032h147.456c12.288 0 21.504 10.24 21.504 21.504v755.712h-43.008zM1167.36 873.472l-312.32 118.784v-960.512l312.32 130.048v711.68zM935.936 528.384c-14.336 0-26.624 14.336-26.624 31.744 0 18.432 12.288 32.768 26.624 32.768s26.624-14.336 26.624-32.768c0-17.408-11.264-31.744-26.624-31.744zM780.288 150.528v722.944h-43.008v-755.712c0-11.264 9.216-21.504 21.504-21.504h74.752v44.032h-43.008c-6.144 0-10.24 4.096-10.24 10.24zM241.664 711.68l140.288-140.288h-333.824v-151.552h333.824l-140.288-140.288 107.52-107.52 323.584 323.584-323.584 323.584-107.52-107.52z"></path>
</svg>
