<?xml version="1.0" encoding="utf-8"?>
<!-- Generated by IcoMoon.io -->
<!DOCTYPE svg PUBLIC "-//W3C//DTD SVG 1.1//EN" "http://www.w3.org/Graphics/SVG/1.1/DTD/svg11.dtd">
<svg version="1.1" xmlns="http://www.w3.org/2000/svg" xmlns:xlink="http://www.w3.org/1999/xlink" width="1024" height="1024" viewBox="0 0 1024 1024">
<path fill="#000000" d="M64.512 512c0 229.376 186.368 415.744 416.768 415.744 97.28 0 186.368-32.768 257.024-88.064l-71.68-75.776c-52.224 37.888-115.712 60.416-185.344 60.416-173.056 0-313.344-140.288-313.344-312.32s140.288-312.32 313.344-312.32c169.984 0 307.2 134.144 313.344 302.080h-146.432l188.416 207.872 187.392-207.872h-125.952c-5.12-225.28-189.44-405.504-416.768-405.504-230.4 0-416.768 186.368-416.768 415.744zM398.336 288.768v237.568l153.6 152.576 50.176-50.176-132.096-131.072v-208.896h-71.68z"></path>
</svg>
