<?xml version="1.0" encoding="utf-8"?>
<!-- Generated by IcoMoon.io -->
<!DOCTYPE svg PUBLIC "-//W3C//DTD SVG 1.1//EN" "http://www.w3.org/Graphics/SVG/1.1/DTD/svg11.dtd">
<svg version="1.1" xmlns="http://www.w3.org/2000/svg" xmlns:xlink="http://www.w3.org/1999/xlink" width="1024" height="1024" viewBox="0 0 1024 1024">
<path fill="#000000" d="M704.512 415.744v-173.056h23.552v-37.888c0-41.984 43.008-76.8 96.256-76.8h48.128c52.224 0 95.232 34.816 95.232 76.8v37.888h24.576v173.056h-287.744zM919.552 211.968c0-24.576-25.6-46.080-57.344-46.080h-26.624c-32.768 0-59.392 21.504-59.392 48.128v28.672h143.36v-30.72zM462.848 728.064l-403.456-403.456c6.144-3.072 13.312-5.12 20.48-5.12h576.512v144.384h71.68l-265.216 264.192zM31.744 822.272v-419.84l209.92 209.92-209.92 209.92zM833.536 463.872h62.464v359.424l-210.944-210.944 148.48-148.48zM462.848 833.536l165.888-164.864 226.304 226.304c-2.048 0-4.096 1.024-7.168 1.024h-768c-3.072 0-5.12-1.024-8.192-2.048l226.304-225.28 164.864 164.864z"></path>
</svg>
