<?xml version="1.0" encoding="utf-8"?>
<!-- Generated by IcoMoon.io -->
<!DOCTYPE svg PUBLIC "-//W3C//DTD SVG 1.1//EN" "http://www.w3.org/Graphics/SVG/1.1/DTD/svg11.dtd">
<svg version="1.1" xmlns="http://www.w3.org/2000/svg" xmlns:xlink="http://www.w3.org/1999/xlink" width="924" height="1024" viewBox="0 0 924 1024">
<path fill="#000000" d="M826.368 147.456q63.488 63.488 87.040 133.12t-5.12 94.208l-137.216 137.216q-16.384 16.384-63.488 26.624t-98.304 4.096l-417.792 417.792q-18.432 18.432-58.368 6.144t-76.8-51.2q-36.864-36.864-50.176-75.776t5.12-57.344l417.792-417.792q-6.144-51.2 4.096-98.304t26.624-63.488l139.264-139.264q24.576-28.672 94.208-4.096t133.12 88.064zM367.616 565.248q32.768 32.768 81.92-14.336 47.104-47.104 14.336-83.968-14.336-14.336-38.912-10.24t-45.056 24.576-23.552 44.032 11.264 39.936zM711.68 260.096q30.72 30.72 69.632 51.2t63.488 25.6 28.672 1.024q2.048-4.096-4.096-27.648t-26.624-61.44-51.2-68.608-67.584-51.2-60.416-26.624-27.648-2.048 1.024 28.672 25.6 63.488 49.152 67.584z"></path>
</svg>
