<?xml version="1.0" encoding="utf-8"?>
<!-- Generated by IcoMoon.io -->
<!DOCTYPE svg PUBLIC "-//W3C//DTD SVG 1.1//EN" "http://www.w3.org/Graphics/SVG/1.1/DTD/svg11.dtd">
<svg version="1.1" xmlns="http://www.w3.org/2000/svg" xmlns:xlink="http://www.w3.org/1999/xlink" width="768" height="1024" viewBox="0 0 768 1024">
<path fill="#000000" d="M384 1024c0 0-384-355.328-384-640 0-211.968 172.032-384 384-384s384 172.032 384 384c0 281.6-384 640-384 640zM384 142.336c-133.12 0-241.664 108.544-241.664 241.664s108.544 241.664 241.664 241.664 241.664-108.544 241.664-241.664-108.544-241.664-241.664-241.664zM411.648 256h-58.368l-104.448 267.264h57.344l22.528-60.416h107.52l23.552 60.416h59.392l-107.52-267.264zM345.088 417.792l36.864-99.328 36.864 99.328h-73.728z"></path>
</svg>
