<?xml version="1.0" encoding="utf-8"?>
<!-- Generated by IcoMoon.io -->
<!DOCTYPE svg PUBLIC "-//W3C//DTD SVG 1.1//EN" "http://www.w3.org/Graphics/SVG/1.1/DTD/svg11.dtd">
<svg version="1.1" xmlns="http://www.w3.org/2000/svg" xmlns:xlink="http://www.w3.org/1999/xlink" width="860" height="1024" viewBox="0 0 860 1024">
<path fill="#000000" d="M778.24 512q0 73.728 81.92 124.928-12.288 40.96-34.816 83.968-71.68-18.432-139.264 45.056-55.296 59.392-34.816 139.264-40.96 20.48-86.016 36.864-47.104-83.968-135.168-83.968t-135.168 83.968q-45.056-16.384-86.016-36.864 20.48-81.92-34.816-139.264-55.296-55.296-139.264-34.816-14.336-26.624-34.816-83.968 83.968-53.248 83.968-135.168 0-73.728-83.968-126.976 20.48-57.344 34.816-83.968 75.776 18.432 139.264-45.056 55.296-57.344 34.816-139.264 43.008-22.528 86.016-34.816 47.104 81.92 135.168 81.92t135.168-81.92q43.008 12.288 86.016 34.816-20.48 79.872 34.816 139.264 67.584 63.488 139.264 45.056 22.528 43.008 34.816 83.968-81.92 51.2-81.92 126.976zM430.080 698.368q77.824 0 132.096-54.272t54.272-132.096-54.272-133.12-132.096-55.296-132.096 55.296-54.272 133.12 54.272 132.096 132.096 54.272z"></path>
</svg>
