<?xml version="1.0" encoding="utf-8"?>
<!-- Generated by IcoMoon.io -->
<!DOCTYPE svg PUBLIC "-//W3C//DTD SVG 1.1//EN" "http://www.w3.org/Graphics/SVG/1.1/DTD/svg11.dtd">
<svg version="1.1" xmlns="http://www.w3.org/2000/svg" xmlns:xlink="http://www.w3.org/1999/xlink" width="1024" height="1024" viewBox="0 0 1024 1024">
<path fill="#000000" d="M512 31.744c-264.192 0-480.256 216.064-480.256 480.256s216.064 480.256 480.256 480.256c265.216 0 480.256-216.064 480.256-480.256s-215.040-480.256-480.256-480.256zM921.6 512c0 93.184-31.744 180.224-84.992 248.832-15.36-11.264-30.72-43.008-15.36-75.776 14.336-32.768 18.432-109.568 15.36-139.264-4.096-29.696-19.456-101.376-61.44-102.4-40.96 0-70.656-14.336-95.232-63.488-51.2-103.424 97.28-123.904 45.056-181.248-14.336-15.36-89.088 66.56-99.328-43.008-1.024-8.192 6.144-19.456 16.384-31.744 161.792 54.272 279.552 207.872 279.552 388.096zM455.68 106.496c-9.216 19.456-35.84 26.624-51.2 40.96-33.792 31.744-49.152 26.624-67.584 56.32s-77.824 72.704-77.824 94.208c0 21.504 29.696 47.104 45.056 41.984s55.296-5.12 77.824 3.072 196.608 17.408 141.312 162.816c-17.408 46.080-93.184 37.888-113.664 114.688-3.072 11.264-13.312 59.392-14.336 75.776-1.024 23.552 17.408 115.712-6.144 115.712s-87.040-81.92-87.040-97.28-16.384-66.56-16.384-111.616-75.776-43.008-75.776-102.4c0-54.272 40.96-80.896 31.744-106.496-9.216-24.576-81.92-25.6-111.616-28.672 52.224-137.216 176.128-238.592 325.632-259.072zM382.976 900.096c24.576-12.288 27.648-29.696 50.176-30.72 24.576-1.024 46.080-9.216 74.752-15.36 25.6-6.144 70.656-31.744 111.616-34.816 33.792-3.072 100.352 1.024 117.76 33.792-64.512 43.008-142.336 68.608-225.28 68.608-45.056 0-88.064-7.168-129.024-21.504z"></path>
</svg>
