<?xml version="1.0" encoding="utf-8"?>
<!-- Generated by IcoMoon.io -->
<!DOCTYPE svg PUBLIC "-//W3C//DTD SVG 1.1//EN" "http://www.w3.org/Graphics/SVG/1.1/DTD/svg11.dtd">
<svg version="1.1" xmlns="http://www.w3.org/2000/svg" xmlns:xlink="http://www.w3.org/1999/xlink" width="1024" height="1024" viewBox="0 0 1024 1024">
<path fill="#000000" d="M512 0q104.448 0 198.656 40.96t163.84 108.544 108.544 163.84 40.96 198.656-40.96 198.656-108.544 163.84-163.84 108.544-198.656 40.96-198.656-40.96-163.84-108.544-108.544-163.84-40.96-198.656 40.96-198.656 108.544-163.84 163.84-108.544 198.656-40.96zM512 72.704q-108.544 0-205.824 52.224l110.592 110.592q47.104-16.384 95.232-16.384t95.232 16.384l110.592-110.592q-97.28-52.224-205.824-52.224zM124.928 717.824l110.592-110.592q-16.384-47.104-16.384-95.232t16.384-95.232l-110.592-110.592q-52.224 97.28-52.224 205.824t52.224 205.824zM512 951.296q108.544 0 205.824-52.224l-110.592-110.592q-47.104 16.384-95.232 16.384t-95.232-16.384l-110.592 110.592q97.28 52.224 205.824 52.224zM512 731.136q91.136 0 155.648-64.512t63.488-154.624-63.488-155.648-155.648-63.488-154.624 63.488-64.512 155.648 64.512 154.624 154.624 64.512zM788.48 607.232l110.592 110.592q52.224-97.28 52.224-205.824t-52.224-205.824l-110.592 110.592q16.384 47.104 16.384 95.232t-16.384 95.232z"></path>
</svg>
