<?xml version="1.0" encoding="utf-8"?>
<!-- Generated by IcoMoon.io -->
<!DOCTYPE svg PUBLIC "-//W3C//DTD SVG 1.1//EN" "http://www.w3.org/Graphics/SVG/1.1/DTD/svg11.dtd">
<svg version="1.1" xmlns="http://www.w3.org/2000/svg" xmlns:xlink="http://www.w3.org/1999/xlink" width="942" height="1024" viewBox="0 0 942 1024">
<path fill="#000000" d="M464.896 40.96q194.56-2.048 333.824 133.12t143.36 329.728q2.048 194.56-134.144 334.848t-330.752 144.384q-194.56 2.048-334.848-134.144t-142.336-330.752q-4.096-194.56 133.12-334.848t331.776-142.336zM462.848 798.72q30.72 0 50.176-19.456t19.456-48.128q2.048-30.72-17.408-50.176t-50.176-19.456h-2.048q-28.672 0-48.128 18.432t-21.504 47.104q0 30.72 19.456 50.176t48.128 21.504h2.048zM632.832 462.848q26.624-34.816 26.624-79.872 0-79.872-55.296-118.784-53.248-38.912-137.216-38.912-65.536 0-106.496 26.624-69.632 43.008-73.728 149.504v4.096h112.64v-4.096q0-26.624 16.384-55.296 16.384-24.576 55.296-24.576 40.96 0 53.248 20.48 16.384 20.48 16.384 45.056 0 18.432-16.384 40.96-8.192 12.288-20.48 20.48l-6.144 4.096q-6.144 4.096-16.384 11.264t-20.48 15.36-21.504 17.408-17.408 17.408q-14.336 20.48-18.432 79.872v8.192h110.592v-4.096q0-12.288 4.096-28.672 6.144-20.48 28.672-36.864l28.672-18.432q47.104-34.816 57.344-51.2z"></path>
</svg>
