<?xml version="1.0" encoding="utf-8"?>
<!-- Generated by IcoMoon.io -->
<!DOCTYPE svg PUBLIC "-//W3C//DTD SVG 1.1//EN" "http://www.w3.org/Graphics/SVG/1.1/DTD/svg11.dtd">
<svg version="1.1" xmlns="http://www.w3.org/2000/svg" xmlns:xlink="http://www.w3.org/1999/xlink" width="1024" height="1024" viewBox="0 0 1024 1024">
<path fill="rgb(0, 0, 0)" d="M317.44 762.88l44.032-80.896q-49.152-35.84-77.824-90.112t-27.648-116.736q0-68.608 34.816-128-131.072 66.56-218.112 201.728 96.256 147.456 244.736 214.016zM539.648 328.704q0-11.264-8.192-19.456t-19.456-7.168q-71.68 0-122.88 51.2t-51.2 121.856q0 12.288 8.192 19.456t19.456 8.192 19.456-8.192 8.192-19.456q0-49.152 34.816-83.968t83.968-34.816q11.264 0 19.456-8.192t8.192-19.456zM746.496 220.16q0 4.096 0 5.12-60.416 107.52-180.224 323.584t-180.224 323.584l-28.672 51.2q-5.12 9.216-15.36 9.216-7.168 0-76.8-39.936-9.216-6.144-9.216-16.384 0-7.168 25.6-50.176-81.92-36.864-150.528-98.304t-119.808-140.288q-11.264-17.408-11.264-38.912t11.264-39.936q88.064-134.144 217.088-211.968t283.648-77.824q51.2 0 102.4 10.24l31.744-55.296q5.12-9.216 15.36-9.216 3.072 0 10.24 3.072t18.432 9.216 18.432 10.24 18.432 10.24 10.24 7.168q9.216 5.12 9.216 15.36zM768 475.136q0 79.872-45.056 145.408t-119.808 94.208l160.768-287.744q4.096 26.624 4.096 48.128zM1024 548.864q0 19.456-11.264 38.912-22.528 36.864-62.464 82.944-86.016 98.304-198.656 152.576t-239.616 54.272l41.984-75.776q121.856-10.24 224.256-77.824t173.056-175.104q-66.56-102.4-161.792-167.936l35.84-64.512q54.272 36.864 104.448 88.064t82.944 104.448q11.264 19.456 11.264 39.936z"></path>
</svg>
