<?xml version="1.0" encoding="utf-8"?>
<!-- Generated by IcoMoon.io -->
<!DOCTYPE svg PUBLIC "-//W3C//DTD SVG 1.1//EN" "http://www.w3.org/Graphics/SVG/1.1/DTD/svg11.dtd">
<svg version="1.1" xmlns="http://www.w3.org/2000/svg" xmlns:xlink="http://www.w3.org/1999/xlink" width="1024" height="1024" viewBox="0 0 1024 1024">
<path fill="rgb(0, 0, 0)" d="M991.232 667.648q18.432 10.24 27.648 32.768t3.072 40.96l-28.672 157.696q-4.096 20.48-22.528 33.792t-40.96 13.312h-835.584q-22.528 0-40.96-13.312t-22.528-33.792l-28.672-157.696q-10.24-49.152 32.768-73.728l161.792-110.592h100.352l-174.080 133.12h182.272q8.192 0 12.288 8.192l40.96 112.64h307.2l40.96-112.64q8.192-8.192 12.288-8.192h182.272l-174.080-133.12h100.352zM778.24 337.92l-266.24 249.856-266.24-249.856h169.984v-262.144h194.56v262.144h167.936z"></path>
</svg>
