<?xml version="1.0" encoding="utf-8"?>
<!-- Generated by IcoMoon.io -->
<!DOCTYPE svg PUBLIC "-//W3C//DTD SVG 1.1//EN" "http://www.w3.org/Graphics/SVG/1.1/DTD/svg11.dtd">
<svg version="1.1" xmlns="http://www.w3.org/2000/svg" xmlns:xlink="http://www.w3.org/1999/xlink" width="942" height="1024" viewBox="0 0 942 1024">
<path fill="#000000" d="M464.896 40.96q194.56-2.048 333.824 133.12t143.36 329.728q2.048 194.56-134.144 334.848t-330.752 144.384q-194.56 2.048-334.848-134.144t-142.336-330.752q-4.096-194.56 133.12-334.848t331.776-142.336zM518.144 196.608q-43.008 0-66.56 24.576t-23.552 51.2q-2.048 28.672 15.36 45.056t50.176 16.384q38.912 0 62.464-22.528t23.552-55.296q0-59.392-61.44-59.392zM395.264 804.864q30.72 0 86.016-26.624t108.544-79.872l-18.432-24.576q-49.152 36.864-73.728 36.864-14.336 0-4.096-38.912l43.008-163.84q26.624-98.304-22.528-98.304-30.72 0-91.136 29.696t-117.76 76.8l16.384 26.624q53.248-34.816 75.776-34.816 12.288 0 0 34.816l-36.864 155.648q-26.624 106.496 34.816 106.496z"></path>
</svg>
