<?xml version="1.0" encoding="utf-8"?>
<!-- Generated by IcoMoon.io -->
<!DOCTYPE svg PUBLIC "-//W3C//DTD SVG 1.1//EN" "http://www.w3.org/Graphics/SVG/1.1/DTD/svg11.dtd">
<svg version="1.1" xmlns="http://www.w3.org/2000/svg" xmlns:xlink="http://www.w3.org/1999/xlink" width="1024" height="1024" viewBox="0 0 1024 1024">
<path fill="#000000" d="M890.88 253.952c-24.576-146.432-158.72-243.712-299.008-218.112s-259.072 138.24-233.472 283.648c5.12 31.744 19.456 80.896 36.864 116.736l-254.976 377.856c-9.216 14.336-14.336 38.912-11.264 55.296l16.384 97.28c3.072 16.384 18.432 27.648 33.792 24.576l74.752-13.312c16.384-3.072 36.864-17.408 46.080-31.744l100.352-161.792 1.024-1.024 68.608-12.288 116.736-190.464c38.912 7.168 94.208 5.12 126.976-1.024 140.288-25.6 201.728-180.224 177.152-325.632zM765.952 328.704c-37.888 57.344-77.824 16.384-133.12-23.552s-104.448-64.512-65.536-121.856c37.888-57.344 113.664-71.68 168.96-31.744s68.608 119.808 29.696 177.152z"></path>
</svg>
