<?xml version="1.0" encoding="utf-8"?>
<!-- Generated by IcoMoon.io -->
<!DOCTYPE svg PUBLIC "-//W3C//DTD SVG 1.1//EN" "http://www.w3.org/Graphics/SVG/1.1/DTD/svg11.dtd">
<svg version="1.1" xmlns="http://www.w3.org/2000/svg" xmlns:xlink="http://www.w3.org/1999/xlink" width="1024" height="1024" viewBox="0 0 1024 1024">
<path fill="#000000" d="M128 992.256v-576.512h64.512v-128c0-141.312 113.664-256 256-256h128c141.312 0 256 114.688 256 256v128h63.488v576.512h-768zM474.112 741.376v91.136h72.704v-91.136c34.816-14.336 59.392-48.128 59.392-89.088 0-52.224-41.984-95.232-95.232-95.232s-96.256 43.008-96.256 95.232c0 39.936 24.576 74.752 59.392 89.088zM704.512 313.344c0-84.992-69.632-153.6-153.6-153.6h-70.656c-89.088 0-159.744 71.68-159.744 159.744v96.256h384v-102.4z"></path>
</svg>
