<?xml version="1.0" encoding="utf-8"?>
<!-- Generated by IcoMoon.io -->
<!DOCTYPE svg PUBLIC "-//W3C//DTD SVG 1.1//EN" "http://www.w3.org/Graphics/SVG/1.1/DTD/svg11.dtd">
<svg version="1.1" xmlns="http://www.w3.org/2000/svg" xmlns:xlink="http://www.w3.org/1999/xlink" width="1024" height="1024" viewBox="0 0 1024 1024">
<path fill="#000000" d="M700.416 31.744h-376.832c-55.296 0-99.328 44.032-99.328 98.304v763.904c0 54.272 44.032 98.304 99.328 98.304h376.832c55.296 0 99.328-44.032 99.328-98.304v-763.904c0-54.272-44.032-98.304-99.328-98.304zM512 953.344c-37.888 0-69.632-22.528-69.632-49.152 0-27.648 31.744-49.152 69.632-49.152 38.912 0 69.632 21.504 69.632 49.152 0 26.624-30.72 49.152-69.632 49.152zM720.896 805.888h-417.792v-646.144h417.792v646.144z"></path>
</svg>
