<?xml version="1.0" encoding="utf-8"?>
<!-- Generated by IcoMoon.io -->
<!DOCTYPE svg PUBLIC "-//W3C//DTD SVG 1.1//EN" "http://www.w3.org/Graphics/SVG/1.1/DTD/svg11.dtd">
<svg version="1.1" xmlns="http://www.w3.org/2000/svg" xmlns:xlink="http://www.w3.org/1999/xlink" width="1024" height="1024" viewBox="0 0 1024 1024">
<path fill="#000000" d="M95.232 340.992h833.536c27.648 0 22.528-29.696 9.216-34.816-14.336-5.12-168.96-63.488-195.584-63.488h-44.032v-146.432h-372.736v146.432h-44.032c-26.624 0-181.248 58.368-195.584 63.488-13.312 5.12-18.432 34.816 9.216 34.816zM937.984 394.24h-851.968c-26.624 0-54.272 31.744-54.272 59.392v171.008c0 26.624 27.648 58.368 54.272 58.368h97.28l-43.008 244.736h744.448l-44.032-244.736h97.28c26.624 0 54.272-31.744 54.272-58.368v-171.008c0-27.648-27.648-59.392-54.272-59.392zM237.568 830.464l68.608-318.464h411.648l68.608 318.464h-548.864z"></path>
</svg>
