<?xml version="1.0" encoding="utf-8"?>
<!-- Generated by IcoMoon.io -->
<!DOCTYPE svg PUBLIC "-//W3C//DTD SVG 1.1//EN" "http://www.w3.org/Graphics/SVG/1.1/DTD/svg11.dtd">
<svg version="1.1" xmlns="http://www.w3.org/2000/svg" xmlns:xlink="http://www.w3.org/1999/xlink" width="1024" height="1024" viewBox="0 0 1024 1024">
<path fill="#000000" d="M970.752 843.776l-229.376-229.376c33.792-56.32 54.272-123.904 54.272-194.56 0-207.872-180.224-388.096-388.096-388.096-206.848 0-375.808 168.96-375.808 375.808 0 207.872 180.224 388.096 388.096 388.096 68.608 0 133.12-19.456 189.44-51.2l230.4 230.4c22.528 22.528 59.392 22.528 81.92 0l57.344-57.344c22.528-22.528 14.336-51.2-8.192-73.728zM147.456 407.552c0-143.36 116.736-260.096 260.096-260.096 144.384 0 272.384 128 272.384 272.384 0 143.36-116.736 260.096-260.096 260.096-144.384 0-272.384-128-272.384-272.384z"></path>
</svg>
