<?xml version="1.0" encoding="utf-8"?>
<!-- Generated by IcoMoon.io -->
<!DOCTYPE svg PUBLIC "-//W3C//DTD SVG 1.1//EN" "http://www.w3.org/Graphics/SVG/1.1/DTD/svg11.dtd">
<svg version="1.1" xmlns="http://www.w3.org/2000/svg" xmlns:xlink="http://www.w3.org/1999/xlink" width="1024" height="1024" viewBox="0 0 1024 1024">
<path fill="#000000" d="M735.232 401.408c-64.512 0-121.856-34.816-154.624-86.016l-152.576 131.072c8.192 20.48 12.288 41.984 12.288 65.536 0 22.528-4.096 45.056-12.288 65.536l152.576 130.048c32.768-51.2 90.112-84.992 154.624-84.992 102.4 0 184.32 82.944 184.32 184.32s-81.92 185.344-184.32 185.344c-101.376 0-184.32-82.944-184.32-185.344 0-22.528 5.12-44.032 13.312-64.512l-152.576-131.072c-32.768 51.2-90.112 84.992-155.648 84.992-101.376 0-184.32-81.92-184.32-184.32s82.944-184.32 184.32-184.32c65.536 0 122.88 33.792 155.648 84.992l152.576-131.072c-8.192-20.48-13.312-41.984-13.312-65.536 0-101.376 82.944-184.32 184.32-184.32 102.4 0 184.32 82.944 184.32 184.32 0 102.4-81.92 185.344-184.32 185.344zM735.232 918.528c61.44 0 110.592-50.176 110.592-111.616 0-60.416-49.152-110.592-110.592-110.592s-110.592 50.176-110.592 110.592c0 61.44 50.176 111.616 110.592 111.616zM256 401.408c-60.416 0-110.592 49.152-110.592 110.592s50.176 110.592 110.592 110.592c61.44 0 110.592-49.152 110.592-110.592s-49.152-110.592-110.592-110.592zM735.232 105.472c-60.416 0-110.592 50.176-110.592 111.616 0 60.416 50.176 110.592 110.592 110.592s110.592-50.176 110.592-110.592c0-61.44-49.152-111.616-110.592-111.616z"></path>
</svg>
