<?xml version="1.0" encoding="utf-8"?>
<!-- Generated by IcoMoon.io -->
<!DOCTYPE svg PUBLIC "-//W3C//DTD SVG 1.1//EN" "http://www.w3.org/Graphics/SVG/1.1/DTD/svg11.dtd">
<svg version="1.1" xmlns="http://www.w3.org/2000/svg" xmlns:xlink="http://www.w3.org/1999/xlink" width="1024" height="1024" viewBox="0 0 1024 1024">
<path fill="#000000" d="M842.752 276.48l-20.48 20.48c65.536 73.728 105.472 171.008 105.472 277.504 0 230.4-186.368 417.792-415.744 417.792s-415.744-187.392-415.744-417.792c0-221.184 171.008-401.408 387.072-415.744v-43.008h-34.816l-19.456-83.968h166.912l-19.456 83.968h-35.84v43.008c95.232 6.144 181.248 44.032 247.808 103.424l20.48-20.48-21.504-20.48 38.912-62.464 99.328 100.352-61.44 38.912-21.504-21.504zM512 240.64c-183.296 0-332.8 149.504-332.8 333.824s149.504 334.848 332.8 334.848c184.32 0 332.8-150.528 332.8-334.848s-148.48-333.824-332.8-333.824zM512 658.432c-46.080 0-82.944-37.888-82.944-83.968 0-33.792 20.48-63.488 50.176-76.8l32.768-132.096 32.768 132.096c29.696 13.312 51.2 43.008 51.2 76.8 0 46.080-37.888 83.968-83.968 83.968z"></path>
</svg>
