<?xml version="1.0" encoding="utf-8"?>
<!-- Generated by IcoMoon.io -->
<!DOCTYPE svg PUBLIC "-//W3C//DTD SVG 1.1//EN" "http://www.w3.org/Graphics/SVG/1.1/DTD/svg11.dtd">
<svg version="1.1" xmlns="http://www.w3.org/2000/svg" xmlns:xlink="http://www.w3.org/1999/xlink" width="1024" height="1024" viewBox="0 0 1024 1024">
<path fill="#000000" d="M662.528 888.832c0 19.456-14.336 34.816-32.768 34.816h-497.664c-18.432 0-33.792-15.36-33.792-34.816v-753.664c0-19.456 15.36-34.816 33.792-34.816h364.544v172.032h165.888v139.264l66.56-68.608v-105.472l-199.68-205.824h-431.104c-36.864 0-66.56 30.72-66.56 68.608v823.296c0 37.888 29.696 68.608 66.56 68.608h564.224c36.864 0 66.56-30.72 66.56-68.608v-240.64l-66.56 68.608v137.216zM971.776 385.024l-44.032 45.056-20.48-21.504 44.032-44.032c22.528-23.552 2.048-39.936-20.48-63.488s-38.912-45.056-61.44-21.504l-307.2 317.44 81.92 84.992 233.472-241.664 20.48 21.504-143.36 147.456 21.504 20.48 216.064-223.232-20.48-21.504zM247.808 864.256c1.024 12.288 27.648 15.36 41.984 10.24s25.6-11.264 37.888-25.6c13.312-14.336 24.576 10.24 47.104 19.456 22.528 10.24 23.552 2.048 44.032-11.264 9.216-5.12 15.36-11.264 20.48-16.384 55.296-29.696 147.456-99.328 163.84-116.736l20.48-21.504-81.92-83.968-20.48 20.48c-18.432 19.456-103.424 138.24-121.856 189.44-10.24 7.168-36.864 5.12-44.032-3.072-7.168-9.216-45.056-1.024-56.32 16.384s-11.264 1.024-22.528-7.168c-10.24-8.192 18.432-25.6 26.624-46.080s1.024-32.768-9.216-32.768c-11.264 0-22.528-28.672-27.648-37.888s-30.72 18.432-49.152 31.744c-18.432 13.312-34.816 44.032-41.984 67.584-8.192 23.552-26.624 21.504-26.624 21.504s16.384 16.384 23.552 15.36 27.648-11.264 36.864-21.504c9.216-10.24 14.336-30.72 23.552-45.056s8.192 8.192 25.6 8.192c17.408 0-1.024 13.312-10.24 30.72-10.24 18.432-2.048 25.6 0 37.888zM197.632 391.168h165.888c18.432 0 33.792-15.36 33.792-33.792 0-19.456-15.36-34.816-33.792-34.816h-165.888c-18.432 0-32.768 15.36-32.768 34.816 0 18.432 14.336 33.792 32.768 33.792zM197.632 665.6h199.68c18.432 0 32.768-15.36 32.768-34.816 0-18.432-14.336-33.792-32.768-33.792h-199.68c-18.432 0-32.768 15.36-32.768 33.792 0 19.456 14.336 34.816 32.768 34.816zM197.632 528.384h299.008c18.432 0 32.768-15.36 32.768-33.792 0-19.456-14.336-34.816-32.768-34.816h-299.008c-18.432 0-32.768 15.36-32.768 34.816 0 18.432 14.336 33.792 32.768 33.792z"></path>
</svg>
