<?xml version="1.0" encoding="utf-8"?>
<!-- Generated by IcoMoon.io -->
<!DOCTYPE svg PUBLIC "-//W3C//DTD SVG 1.1//EN" "http://www.w3.org/Graphics/SVG/1.1/DTD/svg11.dtd">
<svg version="1.1" xmlns="http://www.w3.org/2000/svg" xmlns:xlink="http://www.w3.org/1999/xlink" width="1024" height="1024" viewBox="0 0 1024 1024">
<path fill="#000000" d="M701.44 371.712c-6.144-19.456 184.32-194.56 72.704-335.872-25.6-32.768-113.664 158.72-239.616 245.76-69.632 48.128-230.4 149.504-230.4 205.824v364.544c0 68.608 254.976 140.288 449.536 140.288 71.68 0 174.080-457.728 174.080-530.432s-219.136-71.68-226.304-90.112zM251.904 376.832c-33.792 0-155.648 20.48-155.648 165.888v259.072c0 144.384 121.856 160.768 155.648 160.768 34.816 0-52.224-30.72-52.224-120.832v-339.968c0-94.208 87.040-124.928 52.224-124.928z"></path>
</svg>
