<?xml version="1.0" encoding="utf-8"?>
<!-- Generated by IcoMoon.io -->
<!DOCTYPE svg PUBLIC "-//W3C//DTD SVG 1.1//EN" "http://www.w3.org/Graphics/SVG/1.1/DTD/svg11.dtd">
<svg version="1.1" xmlns="http://www.w3.org/2000/svg" xmlns:xlink="http://www.w3.org/1999/xlink" width="768" height="1024" viewBox="0 0 768 1024">
<path fill="#000000" d="M384 1024c0 0-384-355.328-384-640 0-211.968 172.032-384 384-384s384 172.032 384 384c0 281.6-384 640-384 640zM384 142.336c-133.12 0-241.664 108.544-241.664 241.664s108.544 241.664 241.664 241.664 241.664-108.544 241.664-241.664-108.544-241.664-241.664-241.664zM272.384 523.264h92.16c34.816 0 56.32-1.024 65.536-2.048 14.336-1.024 26.624-6.144 36.864-12.288 9.216-7.168 17.408-16.384 22.528-27.648 6.144-11.264 9.216-23.552 9.216-35.84 0-15.36-4.096-28.672-13.312-39.936s-21.504-19.456-37.888-24.576c11.264-5.12 20.48-13.312 27.648-23.552s10.24-21.504 10.24-33.792c0-12.288-3.072-22.528-8.192-31.744-6.144-9.216-12.288-16.384-20.48-22.528-9.216-5.12-18.432-9.216-28.672-11.264s-26.624-2.048-48.128-2.048h-107.52v267.264zM358.4 300.032c25.6 0 40.96 1.024 46.080 1.024 9.216 1.024 16.384 4.096 20.48 9.216 5.12 5.12 7.168 12.288 7.168 20.48s-3.072 15.36-8.192 20.48c-5.12 6.144-12.288 9.216-21.504 10.24-5.12 0-18.432 1.024-39.936 1.024h-35.84v-62.464h31.744zM370.688 406.528c24.576 0 40.96 1.024 48.128 4.096 8.192 2.048 13.312 6.144 17.408 12.288s6.144 12.288 6.144 20.48c0 9.216-3.072 16.384-8.192 22.528s-11.264 9.216-19.456 10.24c-5.12 1.024-17.408 2.048-37.888 2.048h-50.176v-71.68h44.032z"></path>
</svg>
