<?xml version="1.0" encoding="utf-8"?>
<!-- Generated by IcoMoon.io -->
<!DOCTYPE svg PUBLIC "-//W3C//DTD SVG 1.1//EN" "http://www.w3.org/Graphics/SVG/1.1/DTD/svg11.dtd">
<svg version="1.1" xmlns="http://www.w3.org/2000/svg" xmlns:xlink="http://www.w3.org/1999/xlink" width="1024" height="1024" viewBox="0 0 1024 1024">
<path fill="#000000" d="M960.512 525.312v12.288c0 7.168-6.144 13.312-12.288 13.312h-75.776v279.552c0 1.024-1.024 2.048-1.024 3.072s1.024 2.048 1.024 3.072v71.68c0 11.264-9.216 19.456-19.456 19.456h-56.32c-11.264 0-19.456-8.192-19.456-19.456v-45.056h-530.432v45.056c0 11.264-8.192 19.456-19.456 19.456h-56.32c-10.24 0-19.456-8.192-19.456-19.456v-71.68c0-1.024 1.024-2.048 1.024-3.072s-1.024-2.048-1.024-3.072v-279.552h-75.776c-6.144 0-12.288-6.144-12.288-13.312v-12.288c-17.408 0-31.744-15.36-31.744-32.768v-155.648c0-18.432 14.336-32.768 31.744-32.768v-13.312c0-7.168 6.144-13.312 12.288-13.312h75.776v-25.6c0-17.408 14.336-32.768 31.744-32.768v-122.88h657.408v122.88c17.408 0 31.744 15.36 31.744 32.768v25.6h75.776c6.144 0 12.288 6.144 12.288 13.312v13.312c17.408 0 31.744 14.336 31.744 32.768v155.648c0 17.408-14.336 32.768-31.744 32.768zM151.552 304.128h-50.176c-1.024 0-2.048 0-3.072 0 16.384 2.048 28.672 15.36 28.672 32.768v155.648c0 16.384-12.288 30.72-28.672 31.744 1.024 1.024 2.048 1.024 3.072 1.024h50.176v-221.184zM689.152 772.096h88.064v-32.768h-88.064v32.768zM423.936 830.464c0 4.096 2.048 6.144 6.144 6.144h163.84c4.096 0 6.144-2.048 6.144-6.144v-52.224c0-3.072-2.048-6.144-6.144-6.144h-163.84c-4.096 0-6.144 3.072-6.144 6.144v52.224zM808.96 317.44c0-7.168-6.144-13.312-12.288-13.312h-569.344c-6.144 0-12.288 6.144-12.288 13.312v155.648c0 0 44.032 52.224 296.96 52.224 253.952 0 296.96-52.224 296.96-52.224v-155.648zM246.784 772.096h88.064v-32.768h-88.064v32.768zM183.296 680.96l31.744 32.768h119.808v-65.536l-151.552-32.768v65.536zM840.704 615.424l-151.552 32.768v65.536h119.808l31.744-32.768v-65.536zM925.696 304.128c-1.024 0-2.048 0-3.072 0h-50.176v221.184h50.176c1.024 0 2.048 0 3.072-1.024-16.384-1.024-28.672-15.36-28.672-31.744v-155.648c0-17.408 12.288-30.72 28.672-32.768z"></path>
</svg>
