<?xml version="1.0" encoding="utf-8"?>
<!-- Generated by IcoMoon.io -->
<!DOCTYPE svg PUBLIC "-//W3C//DTD SVG 1.1//EN" "http://www.w3.org/Graphics/SVG/1.1/DTD/svg11.dtd">
<svg version="1.1" xmlns="http://www.w3.org/2000/svg" xmlns:xlink="http://www.w3.org/1999/xlink" width="840" height="1024" viewBox="0 0 840 1024">
<path fill="#000000" d="M190.464 727.040l118.784-118.784v299.008l-282.624-16.384 90.112-88.064q-118.784-124.928-116.736-296.96t122.88-294.912q102.4-102.4 245.76-118.784l4.096 104.448q-102.4 16.384-176.128 90.112-90.112 90.112-92.16 218.112t86.016 222.208zM530.432 114.688l282.624 16.384-90.112 88.064q118.784 124.928 116.736 296.96t-122.88 294.912q-98.304 100.352-245.76 120.832l-2.048-106.496q100.352-16.384 174.080-90.112 90.112-90.112 92.16-218.112t-86.016-222.208l-116.736 118.784z"></path>
</svg>
