<?xml version="1.0" encoding="utf-8"?>
<!-- Generated by IcoMoon.io -->
<!DOCTYPE svg PUBLIC "-//W3C//DTD SVG 1.1//EN" "http://www.w3.org/Graphics/SVG/1.1/DTD/svg11.dtd">
<svg version="1.1" xmlns="http://www.w3.org/2000/svg" xmlns:xlink="http://www.w3.org/1999/xlink" width="1024" height="1024" viewBox="0 0 1024 1024">
<path fill="#000000" d="M783.36 741.376c-125.952-46.080-165.888-86.016-165.888-168.96 0-50.176 38.912-33.792 55.296-125.952 7.168-37.888 40.96-1.024 47.104-88.064 0-34.816-18.432-43.008-18.432-43.008s10.24-51.2 13.312-91.136c5.12-49.152-27.648-176.128-202.752-176.128s-207.872 126.976-202.752 176.128c4.096 39.936 13.312 91.136 13.312 91.136s-18.432 8.192-18.432 43.008c6.144 87.040 39.936 50.176 47.104 88.064 16.384 92.16 55.296 75.776 55.296 125.952 0 82.944-39.936 122.88-165.888 168.96-126.976 46.080-208.896 94.208-208.896 125.952 0 32.768 0 108.544 0 108.544h960.512c0 0 0-75.776 0-108.544 0-31.744-81.92-79.872-208.896-125.952z"></path>
</svg>
