<?xml version="1.0" encoding="utf-8"?>
<!-- Generated by IcoMoon.io -->
<!DOCTYPE svg PUBLIC "-//W3C//DTD SVG 1.1//EN" "http://www.w3.org/Graphics/SVG/1.1/DTD/svg11.dtd">
<svg version="1.1" xmlns="http://www.w3.org/2000/svg" xmlns:xlink="http://www.w3.org/1999/xlink" width="1024" height="1024" viewBox="0 0 1024 1024">
<path fill="rgb(0, 0, 0)" d="M951.296 548.864q-87.040-135.168-218.112-201.728 34.816 59.392 34.816 128 0 106.496-74.752 181.248t-181.248 74.752-181.248-74.752-74.752-181.248q0-68.608 34.816-128-131.072 66.56-218.112 201.728 76.8 116.736 191.488 186.368t247.808 69.632 247.808-69.632 191.488-186.368zM539.648 328.704q0-11.264-8.192-19.456t-19.456-7.168q-71.68 0-122.88 51.2t-51.2 121.856q0 12.288 8.192 19.456t19.456 8.192 19.456-8.192 8.192-19.456q0-49.152 34.816-83.968t83.968-34.816q11.264 0 19.456-8.192t8.192-19.456zM1024 548.864q0 19.456-11.264 38.912-79.872 132.096-215.040 210.944t-285.696 78.848-285.696-78.848-215.040-210.944q-11.264-19.456-11.264-38.912t11.264-39.936q79.872-131.072 215.040-209.92t285.696-79.872 285.696 79.872 215.040 209.92q11.264 20.48 11.264 39.936z"></path>
</svg>
