<?xml version="1.0" encoding="utf-8"?>
<!-- Generator: Adobe Illustrator 15.0.2, SVG Export Plug-In . SVG Version: 6.00 Build 0)  -->
<!DOCTYPE svg PUBLIC "-//W3C//DTD SVG 1.1//EN" "http://www.w3.org/Graphics/SVG/1.1/DTD/svg11.dtd">
<svg version="1.1" xmlns="http://www.w3.org/2000/svg" xmlns:xlink="http://www.w3.org/1999/xlink" x="0px" y="0px" width="100px"
	 height="23.438px" viewBox="0 0 100 23.438" enable-background="new 0 0 100 23.438" xml:space="preserve">
<g id="boundingbox">
	<rect x="-50" y="-85.859" fill="none" width="200" height="200"/>
</g>
<g id="logo_Bg">
	<g>
		<polygon fill="#FFFFFF" points="0,22.748 100,22.748 100,23.348 0,23.348 0,22.748 		"/>
		<polygon fill="#FFFFFF" points="0,18.133 100,18.133 100,18.732 0,18.732 0,18.133 		"/>
		<polygon fill="#FFFFFF" points="0,20.441 100,20.441 100,21.041 0,21.041 0,20.441 		"/>
	</g>
	<g id="Gesch-feld">
		<g id="express_1_">
			<polygon fill="#D40511" points="33.146,23.348 36.188,23.348 36.67,22.689 34.406,22.689 35.662,20.97 37.725,20.97 
				38.205,20.312 36.145,20.312 37.26,18.787 39.523,18.787 40.004,18.129 36.963,18.129 33.146,23.348 			"/>
			<polygon fill="#D40511" points="36.877,23.348 37.811,23.348 40.977,21.135 40.99,23.348 41.941,23.348 41.93,20.618 
				45.578,18.129 44.691,18.129 41.787,20.133 41.805,18.129 40.902,18.129 40.859,20.633 36.877,23.348 			"/>
			<path fill-rule="evenodd" clip-rule="evenodd" fill="#D40511" d="M46.834,18.787h0.662c0.482,0,1.021,0.239,0.541,0.897
				c-0.504,0.688-1.279,0.919-1.762,0.919h-0.77L46.834,18.787L46.834,18.787z M42.723,23.348H43.5l1.525-2.086h0.762
				c0.98,0,2.223-0.411,3.068-1.57c0.869-1.189,0.217-1.563-0.895-1.563h-1.424L42.723,23.348L42.723,23.348z"/>
			<path fill-rule="evenodd" clip-rule="evenodd" fill="#D40511" d="M47.256,23.348h0.777l1.695-2.317h0.467
				c0.412,0,0.668,0,0.539,0.508l-0.492,1.81h0.887l0.494-2.078c0.064-0.322,0.029-0.435-0.146-0.523l0.012-0.016
				c0.705-0.104,1.523-0.553,1.988-1.188c0.912-1.249-0.002-1.413-1.076-1.413h-1.328L47.256,23.348L47.256,23.348z M51.367,18.787
				h0.748c0.715,0,0.871,0.299,0.525,0.77c-0.365,0.501-1.031,0.815-1.77,0.815h-0.662L51.367,18.787L51.367,18.787z"/>
			<polygon fill="#D40511" points="52.242,23.348 55.283,23.348 55.764,22.689 53.5,22.689 54.758,20.97 56.818,20.97 
				57.299,20.312 55.238,20.312 56.354,18.787 58.615,18.787 59.098,18.129 56.057,18.129 52.242,23.348 			"/>
			<path fill="#D40511" d="M62.875,18.226c-0.281-0.127-0.664-0.187-1.023-0.187c-0.979,0-2.102,0.493-2.779,1.42
				c-1.188,1.623,1.381,1.302,0.529,2.468c-0.449,0.613-1.246,0.853-1.689,0.853c-0.396,0-0.754-0.149-0.941-0.254l-0.586,0.695
				c0.275,0.112,0.572,0.217,0.953,0.217c1.09,0,2.307-0.441,3.121-1.555c1.256-1.721-1.246-1.488-0.514-2.49
				c0.398-0.546,1.021-0.695,1.457-0.695c0.404,0,0.574,0.067,0.861,0.217L62.875,18.226L62.875,18.226z"/>
			<path fill="#D40511" d="M66.838,18.226c-0.279-0.127-0.664-0.187-1.021-0.187c-0.98,0-2.104,0.493-2.781,1.42
				c-1.186,1.623,1.383,1.302,0.531,2.468c-0.449,0.613-1.246,0.853-1.689,0.853c-0.396,0-0.754-0.149-0.941-0.254l-0.586,0.695
				c0.275,0.112,0.572,0.217,0.953,0.217c1.09,0,2.307-0.441,3.119-1.555c1.258-1.721-1.244-1.488-0.512-2.49
				c0.398-0.546,1.021-0.695,1.457-0.695c0.404,0,0.572,0.067,0.859,0.217L66.838,18.226L66.838,18.226z"/>
		</g>
	</g>
	<g id="DHL_1_">
		<g>
			<g>
				<polygon fill="#D40511" points="0,11.276 13.523,11.276 12.785,12.281 0,12.281 0,11.276 				"/>
				<polygon fill="#D40511" points="0,9.411 14.897,9.411 14.157,10.415 0,10.415 0,9.411 				"/>
				<polygon fill="#D40511" points="0,13.143 12.15,13.143 11.415,14.141 0,14.141 0,13.143 				"/>
			</g>
			<g>
				<polygon fill="#D40511" points="100,12.279 86.53,12.279 87.268,11.275 100,11.275 100,12.279 				"/>
				<polygon fill="#D40511" points="100,14.138 85.16,14.14 85.895,13.14 100,13.14 100,14.138 				"/>
				<polygon fill="#D40511" points="88.641,9.409 100,9.409 100,10.414 87.902,10.414 88.641,9.409 				"/>
			</g>
		</g>
		<g>
			<path fill="#D40511" d="M13.098,14.141l6.417-8.719c0,0,7.114,0,7.963,0c0.881,0,0.869,0.334,0.439,0.917
				c-0.437,0.592-1.18,1.61-1.625,2.21c-0.226,0.306-0.634,0.861,0.719,0.861c1.431,0,10.669,0,10.669,0
				c-0.888,1.216-3.766,4.729-8.933,4.729C24.559,14.141,13.098,14.141,13.098,14.141L13.098,14.141z"/>
			<polygon fill="#D40511" points="49.85,9.41 46.37,14.141 37.19,14.141 40.672,9.411 49.85,9.41 			"/>
			<polygon fill="#D40511" points="63.125,9.411 59.644,14.141 50.467,14.141 53.948,9.411 63.125,9.411 			"/>
			<path fill="#D40511" d="M66.109,9.411c0.001,0-0.67,0.917-0.996,1.357c-1.152,1.558-0.134,3.372,3.628,3.372
				c4.345,0,14.738,0,14.738,0l3.481-4.729H66.109L66.109,9.411z"/>
		</g>
		<g>
			<path fill="#D40511" d="M17.586,0l-3.195,4.341c0,0,16.563,0,17.413,0c0.88,0,0.868,0.334,0.438,0.917
				c-0.437,0.591-1.168,1.621-1.613,2.221c-0.226,0.305-0.634,0.86,0.719,0.86c1.431,0,7.121,0,7.121,0s1.147-1.562,2.109-2.867
				C41.888,3.696,40.692,0,36.013,0C31.825,0,17.586,0,17.586,0L17.586,0z"/>
			<polygon fill="#D40511" points="63.913,8.34 41.46,8.34 47.6,0 56.777,0 53.259,4.782 57.354,4.782 60.876,0 70.051,0 
				63.913,8.34 			"/>
			<polygon fill="#D40511" points="82.76,0 76.621,8.34 66.897,8.34 73.041,0 82.76,0 			"/>
		</g>
	</g>
</g>
</svg>
