<?xml version="1.0" encoding="utf-8"?>
<!-- Generator: Adobe Illustrator 16.0.4, SVG Export Plug-In . SVG Version: 6.00 Build 0)  -->
<!DOCTYPE svg PUBLIC "-//W3C//DTD SVG 1.1//EN" "http://www.w3.org/Graphics/SVG/1.1/DTD/svg11.dtd">
<svg version="1.1" id="Layer_1" xmlns="http://www.w3.org/2000/svg" xmlns:xlink="http://www.w3.org/1999/xlink" x="0px" y="0px"
	 width="16px" height="16px" viewBox="0 0 16 16" enable-background="new 0 0 16 16" xml:space="preserve">
<path fill-rule="evenodd" clip-rule="evenodd" fill="#999999" d="M14,16H2c-1.104,0-2-0.896-2-2V2c0-1.104,0.896-2,2-2h12
	c1.104,0,2,0.896,2,2v12C16,15.104,15.104,16,14,16z M14,15c0.553,0,1-0.447,1-1v-1.688h-2.688V15H14z M12,15v-2.688H9.312V15H12z
	 M9,15v-2.688H6.312V15H9z M6,15v-2.688H3.312V15H6z M1,14c0,0.553,0.448,1,1,1h1v-2.688H1V14z M3,4H2C1.448,4,1,4.448,1,5v1h2V4z
	 M3,6.312H1V9h2V6.312z M1,9.312V12h2V9.312H1z M6,4H3.312v2H6V4z M6,6.312H3.312V9H6V6.312z M3.312,9.312V12H6V9.312H3.312z M9,4
	H6.312v2H9V4z M9,6.312H6.312V9H9V6.312z M6.312,9.312V12H9V9.312H6.312z M12,4H9.312v2H12V4z M12,6.312H9.312V9H12V6.312z
	 M9.312,9.312V12H12V9.312H9.312z M15,5c0-0.552-0.447-1-1-1h-1.688v2H15V5z M15,6.312h-2.688V9H15V6.312z M12.312,9.312V12H15
	V9.312H12.312z"/>
</svg>
