<?xml version="1.0" encoding="utf-8"?>
<!-- Generator: Adobe Illustrator 16.0.4, SVG Export Plug-In . SVG Version: 6.00 Build 0)  -->
<!DOCTYPE svg PUBLIC "-//W3C//DTD SVG 1.1//EN" "http://www.w3.org/Graphics/SVG/1.1/DTD/svg11.dtd">
<svg version="1.1" id="Layer_1" xmlns="http://www.w3.org/2000/svg" xmlns:xlink="http://www.w3.org/1999/xlink" x="0px" y="0px"
	 width="64px" height="64px" viewBox="0 0 64 64" enable-background="new 0 0 64 64" xml:space="preserve">
<path fill-rule="evenodd" clip-rule="evenodd" fill="#999999" d="M55,63H27c-2.209,0-4-1.791-4-4v-2h-2c-2.209,0-4-1.791-4-4v-2h-2
	c-2.209,0-4-1.791-4-4v-2H9c-2.209,0-4-1.791-4-4V5c0-2.209,1.791-4,4-4h28c2.209,0,4,1.791,4,4v2h2c2.209,0,4,1.791,4,4v2h2
	c2.209,0,4,1.791,4,4v2h2c2.209,0,4,1.791,4,4v36C59,61.209,57.209,63,55,63z M39,5c0-1.104-0.896-2-2-2H9C7.896,3,7,3.896,7,5v36
	c0,1.104,0.896,2,2,2h2V11c0-2.209,1.791-4,4-4h24V5z M45,11c0-1.104-0.896-2-2-2H15c-1.104,0-2,0.896-2,2v36c0,1.104,0.896,2,2,2h2
	V17c0-2.209,1.791-4,4-4h24V11z M51,17c0-1.104-0.896-2-2-2H21c-1.104,0-2,0.896-2,2v36c0,1.104,0.896,2,2,2h2V23
	c0-2.209,1.791-4,4-4h24V17z M57,23c0-1.104-0.896-2-2-2H27c-1.104,0-2,0.896-2,2v36c0,1.104,0.896,2,2,2h28c1.104,0,2-0.896,2-2V23
	z M31,49h20v2H31V49z M31,43h20v2H31V43z M31,37h20v2H31V37z M31,31h20v2H31V31z"/>
</svg>
