<?xml version="1.0" encoding="utf-8"?>
<!-- Generator: Adobe Illustrator 16.0.4, SVG Export Plug-In . SVG Version: 6.00 Build 0)  -->
<!DOCTYPE svg PUBLIC "-//W3C//DTD SVG 1.1//EN" "http://www.w3.org/Graphics/SVG/1.1/DTD/svg11.dtd">
<svg version="1.1" id="Layer_1" xmlns="http://www.w3.org/2000/svg" xmlns:xlink="http://www.w3.org/1999/xlink" x="0px" y="0px"
	 width="64px" height="64px" viewBox="0 0 64 64" enable-background="new 0 0 64 64" xml:space="preserve">
<g>
	<g>
		<path fill-rule="evenodd" clip-rule="evenodd" fill="#999999" d="M22.772,0L3,21.333v32L42.545,64L61,41.333v-32L22.772,0z
			 M23.495,2.143l13.511,3.372L19.949,25.244L5.862,21.448L23.495,2.143z M41.003,61.193l-35.992-9.58V23.61l14.348,3.752
			l-0.031,7.919l2.103-0.162l3.329,1.516l2.206-0.878v-6.406l14.037,3.671V61.193z M41.516,31.056l-14.283-3.849L43.688,7.183
			l14.518,3.623L41.516,31.056z M58.988,40.907l-15.975,19.1V32.721l15.975-19.326V40.907z"/>
	</g>
</g>
</svg>
