<?xml version="1.0" encoding="utf-8"?>
<!-- Generator: Adobe Illustrator 16.0.4, SVG Export Plug-In . SVG Version: 6.00 Build 0)  -->
<!DOCTYPE svg PUBLIC "-//W3C//DTD SVG 1.1//EN" "http://www.w3.org/Graphics/SVG/1.1/DTD/svg11.dtd">
<svg version="1.1" id="Layer_1" xmlns="http://www.w3.org/2000/svg" xmlns:xlink="http://www.w3.org/1999/xlink" x="0px" y="0px"
	 width="24px" height="24px" viewBox="0 0 24 24" enable-background="new 0 0 24 24" xml:space="preserve">
<path fill-rule="evenodd" clip-rule="evenodd" fill="#666766" d="M22.402,17.115c-0.622,0.24-6.543,0.809-9.625,0.875
	c-3.083,0.066-7.835-0.234-8.275-0.328s-0.487-1.351-0.499-1.563c-0.006-0.102,0.026-1.153,0.064-2.245
	C2.718,13.781,1.693,13.7,1.5,13.659c-0.44-0.094-0.486-1.351-0.499-1.563C0.989,11.884,1.14,7.511,1.175,7.313
	c0.035-0.199,0.15-0.503,0.624-0.422c0.473,0.081,1.063,0.453,1.446,0.797c0.383,0.345,1.41,0.983,2.444,0.985
	C6.723,8.674,6.523,8.036,6.938,7.5C7.354,6.966,7.58,6.747,7.73,6.657C7.881,6.566,9.476,6,9.476,6s1.655,2.069,3.64,3.001
	c1.734,0.814,2.726,0.992,3.691,1.156c0.86,0.147,1.275,0.076,1.944,0.297c0.669,0.221,1.246,1.172,1.246,1.172
	s-0.013,1.259-0.598,1.485c-0.217,0.084-1.086,0.208-2.249,0.337c1.128,0.441,1.903,0.583,2.657,0.711
	c0.861,0.147,1.276,0.076,1.944,0.298C22.423,14.679,23,15.631,23,15.631S22.987,16.889,22.402,17.115z M18.046,11.635
	c0.582-0.071,0.39-0.203,0.383-0.207c-0.011,0-0.091-0.006-0.528-0.051c-0.794-0.083-1.31-0.219-2.137-0.313
	c-1.126-0.128-2.495-0.86-3.774-1.541C10.174,8.557,9.145,7.17,9.145,7.17S8.531,7.381,8.387,7.459
	C8.244,7.537,7.982,7.811,7.702,8.351c-0.317,0.61-0.808,1.447-1.793,1.445S3.537,9.303,3.172,9.006
	C2.808,8.708,2.414,8.383,2.011,8.171c0.057,0.03-0.193,0.213-0.205,3.317c0,0.185,0.055,0.406,0.475,0.487
	c0.162,0.031,0.875,0.089,1.852,0.146c0.019-0.443,0.035-0.756,0.044-0.805c0.035-0.198,0.15-0.503,0.624-0.422
	c0.473,0.081,1.063,0.453,1.446,0.798c0.17,0.153,0.473,0.363,0.842,0.551c0.842,0.021,1.69,0.03,2.473,0.018
	c0.12-0.222,0.179-0.5,0.378-0.756c0.415-0.535,0.641-0.754,0.792-0.844c0.15-0.09,1.746-0.657,1.746-0.657s0.835,1.035,2.024,1.971
	C16.256,11.827,17.734,11.674,18.046,11.635z M21.428,15.429c0,0,0.001,0.002,0.002,0.002c-0.011,0-0.091-0.006-0.527-0.052
	c-0.794-0.082-1.311-0.219-2.137-0.312c-1.126-0.129-2.495-0.859-3.774-1.54c-1.815-0.967-2.845-2.354-2.845-2.354
	s-0.614,0.21-0.757,0.289s-0.405,0.352-0.685,0.892c-0.317,0.61-0.808,1.446-1.793,1.445c-0.985-0.001-2.372-0.492-2.737-0.79
	c-0.365-0.299-0.758-0.624-1.161-0.835c0.057,0.03-0.193,0.213-0.205,3.317c0,0.186,0.055,0.406,0.475,0.487
	c0.42,0.081,4.494,0.341,7.43,0.283c2.937-0.058,7.744-0.551,8.335-0.623c0.581-0.072,0.389-0.203,0.382-0.208
	C21.435,15.431,21.428,15.429,21.428,15.429z"/>
</svg>
