<?xml version="1.0" encoding="utf-8"?>
<!-- Generator: Adobe Illustrator 16.0.4, SVG Export Plug-In . SVG Version: 6.00 Build 0)  -->
<!DOCTYPE svg PUBLIC "-//W3C//DTD SVG 1.1//EN" "http://www.w3.org/Graphics/SVG/1.1/DTD/svg11.dtd">
<svg version="1.1" id="Layer_1" xmlns="http://www.w3.org/2000/svg" xmlns:xlink="http://www.w3.org/1999/xlink" x="0px" y="0px"
	 width="20px" height="20px" viewBox="0 0 20 20" enable-background="new 0 0 20 20" xml:space="preserve">
<path fill-rule="evenodd" clip-rule="evenodd" fill="#FFCE0C" d="M19.504,8.703c0.115,0.133,0.214,0.278,0.291,0.438
	c0.137,0.286,0.209,0.589,0.201,0.898c0,0.009,0,0.017-0.001,0.026c-0.007,0.214-0.05,0.417-0.118,0.609
	c-0.003,0.008-0.006,0.016-0.009,0.023c-0.009,0.021-0.015,0.042-0.022,0.063c-0.006,0.015-0.01,0.029-0.016,0.044
	c-0.09,0.203-0.215,0.386-0.363,0.546c-0.02,0.021-0.025,0.048-0.045,0.067c-0.018,0.018-0.039,0.025-0.059,0.039l-6.992,6.992
	c-0.779,0.779-2.041,0.779-2.82,0s-0.779-2.041,0-2.82L13.182,12H2.002c-1.104,0-2-0.896-2-2s0.896-2,2-2h11.179l-3.63-3.631
	c-0.779-0.779-0.779-2.042,0-2.82c0.779-0.779,2.041-0.779,2.82,0l6.992,6.991c0.018,0.017,0.041,0.022,0.059,0.04
	C19.459,8.616,19.471,8.664,19.504,8.703z"/>
</svg>
