<?xml version="1.0" encoding="utf-8"?>
<!-- Generator: Adobe Illustrator 16.0.4, SVG Export Plug-In . SVG Version: 6.00 Build 0)  -->
<!DOCTYPE svg PUBLIC "-//W3C//DTD SVG 1.1//EN" "http://www.w3.org/Graphics/SVG/1.1/DTD/svg11.dtd">
<svg version="1.1" id="Layer_1" xmlns="http://www.w3.org/2000/svg" xmlns:xlink="http://www.w3.org/1999/xlink" x="0px" y="0px"
	 width="24px" height="24px" viewBox="0 0 24 24" enable-background="new 0 0 24 24" xml:space="preserve">
<g>
	<g>
		<path fill-rule="evenodd" clip-rule="evenodd" d="M20,6.02h-0.4L18.502,2L3.654,6.055c-0.112,0.02-0.219,0.051-0.323,0.088
			L3.213,6.175l0.001,0.005C2.5,6.486,2,7.193,2,8.017v11.986C2,21.105,2.896,22,4,22h16c1.104,0,2-0.895,2-1.997v-4v-3.987V8.017
			C22,6.914,21.104,6.02,20,6.02z M17.794,3.202l0.77,2.818H7.53L17.794,3.202z M21,15.007c0,0.551-0.447,0.996-1,0.996h-3
			c-0.553,0-1-0.445-1-0.996v-1.993c0-0.551,0.447-0.998,1-0.998h3c0.553,0,1,0.447,1,0.998V15.007z M21,11.019h-5
			c-0.553,0-1,0.446-1,0.997v3.987C15,16.554,15.447,17,16,17h5v3.003c0,0.552-0.447,0.998-1,0.998H4c-0.552,0-1-0.446-1-0.998
			V8.017c0-0.551,0.448-0.999,1-0.999h16c0.553,0,1,0.447,1,0.999V11.019z M18,13.014c-0.553,0-1,0.445-1,0.996s0.447,0.997,1,0.997
			s1-0.446,1-0.997S18.553,13.014,18,13.014z"/>
	</g>
</g>
</svg>
