<?xml version="1.0" encoding="utf-8"?>
<!-- Generator: Adobe Illustrator 19.0.0, SVG Export Plug-In . SVG Version: 6.00 Build 0)  -->
<svg version="1.1" id="Ebene_1" xmlns="http://www.w3.org/2000/svg" xmlns:xlink="http://www.w3.org/1999/xlink" x="0px" y="0px"
	 viewBox="0 0 283.5 64.9" style="enable-background:new 0 0 283.5 64.9;" xml:space="preserve">
<style type="text/css">
	.st0{fill:#D40511;}
</style>
<g>
	<polygon class="st0" points="0,36.6 34.4,36.6 32.4,39.4 0,39.4 0,36.6 	"/>
	<polygon class="st0" points="283.5,39.4 241.4,39.4 243.5,36.6 283.5,36.6 283.5,39.4 	"/>
	<polygon class="st0" points="0,31.4 38.3,31.4 36.2,34.2 0,34.2 0,31.4 	"/>
	<polygon class="st0" points="0,26.2 42.2,26.2 40.1,29 0,29 0,26.2 	"/>
	<polygon class="st0" points="283.5,34.2 245.3,34.2 247.4,31.4 283.5,31.4 283.5,34.2 	"/>
	<polygon class="st0" points="251.3,26.2 283.5,26.2 283.5,29 249.2,29 251.3,26.2 	"/>
	<path class="st0" d="M37.1,39.4l18.2-24.3c0,0,20.2,0,22.6,0c2.5,0,2.5,0.9,1.2,2.6c-1.2,1.6-3.3,4.5-4.6,6.2
		c-0.6,0.9-1.8,2.4,2,2.4c4.1,0,30.2,0,30.2,0c-2.5,3.4-10.7,13.2-25.3,13.2C69.6,39.4,37.1,39.4,37.1,39.4L37.1,39.4L37.1,39.4z"/>
	<path class="st0" d="M141.3,26.2l-9.9,13.2h-26c0,0,9.9-13.2,9.9-13.2L141.3,26.2L141.3,26.2z"/>
	<path class="st0" d="M178.9,26.2l-9.9,13.2h-26c0,0,9.9-13.2,9.9-13.2H178.9L178.9,26.2z"/>
	<path class="st0" d="M187.4,26.2c0,0-1.9,2.6-2.8,3.8c-3.3,4.3-0.4,9.4,10.3,9.4c12.3,0,41.8,0,41.8,0l9.9-13.2H187.4L187.4,26.2
		L187.4,26.2z"/>
	<path class="st0" d="M49.9,0l-9.1,12.1c0,0,46.9,0,49.4,0c2.5,0,2.5,0.9,1.2,2.6c-1.2,1.6-3.3,4.5-4.6,6.2c-0.6,0.8-1.8,2.4,2,2.4
		c4.1,0,20.2,0,20.2,0s3.3-4.4,6-8c3.7-4.9,0.3-15.2-12.9-15.2C90.2,0,49.9,0,49.9,0L49.9,0L49.9,0z"/>
	<polygon class="st0" points="181.2,23.2 117.5,23.2 134.9,0 160.9,0 151,13.3 162.6,13.3 172.6,0 198.6,0 181.2,23.2 	"/>
	<path class="st0" d="M234.6,0l-17.4,23.2h-27.6C189.6,23.2,207,0,207,0H234.6L234.6,0z"/>
	<path class="st0" d="M16,53h6.9l-0.4,1.8H18l-0.6,2.9h4.1l-0.4,1.8H17l-0.7,3.3h4.6l-0.4,1.8h-6.9L16,53z"/>
	<path class="st0" d="M27.2,53l1.7,4h0l3.2-4h2.8L30,58.6l2.7,6.1h-2.6L28.4,60h0l-3.6,4.7h-2.9l5.4-6.3L24.6,53H27.2z"/>
	<path class="st0" d="M43.7,55.3c-0.5-0.4-1.4-0.7-2.7-0.7c-2.6,0-4.4,2-4.4,4.7c0,2,1.3,3.7,3.3,3.7c1,0,1.8-0.3,2.5-0.7L42,64.5
		c-0.9,0.2-1.8,0.3-2.6,0.3c-3.5,0-5.2-2.4-5.2-5.5c0-3.8,2.6-6.5,6.7-6.5c1.2,0,2.4,0.2,3.4,0.6L43.7,55.3z"/>
	<path class="st0" d="M46.1,53H53l-0.4,1.8h-4.6l-0.6,2.9h4.1l-0.4,1.8h-4.1l-0.7,3.3H51l-0.4,1.8h-6.9L46.1,53z"/>
	<path class="st0" d="M55.1,53h2.3l-2.1,9.8H60l-0.4,1.8h-6.9L55.1,53z"/>
	<path class="st0" d="M63.1,53h2.3l-2.1,9.8H68l-0.4,1.8h-6.9L63.1,53z"/>
	<path class="st0" d="M71.2,53h6.9l-0.4,1.8h-4.6l-0.6,2.9h4.1l-0.4,1.8h-4.1l-0.7,3.3h4.6l-0.4,1.8h-6.9L71.2,53z"/>
	<path class="st0" d="M80.3,53h3l2.5,8.8h0l1.9-8.8h2.2l-2.5,11.7h-3l-2.4-8.9h0L80,64.7h-2.2L80.3,53z"/>
	<path class="st0" d="M99.9,55.3c-0.5-0.4-1.4-0.7-2.7-0.7c-2.6,0-4.4,2-4.4,4.7c0,2,1.3,3.7,3.3,3.7c1,0,1.8-0.3,2.5-0.7l-0.4,2.2
		c-0.9,0.2-1.8,0.3-2.6,0.3c-3.5,0-5.2-2.4-5.2-5.5c0-3.8,2.6-6.5,6.7-6.5c1.2,0,2.4,0.2,3.4,0.6L99.9,55.3z"/>
	<path class="st0" d="M102.6,53h6.9l-0.4,1.8h-4.6l-0.6,2.9h4.1l-0.4,1.8h-4.1l-0.7,3.3h4.6l-0.4,1.8h-6.9L102.6,53z"/>
	<path class="st0" d="M110,62.3h2.3l-0.5,2.3h-2.3L110,62.3z"/>
	<path class="st0" d="M127.1,55.2c-0.7-0.4-1.6-0.6-2.4-0.6c-0.8,0-2,0.3-2,1.3c0,1.9,4,1.8,4,5c0,2.9-2.2,3.9-4.8,3.9
		c-1.1,0-2.3-0.3-3.3-0.7l0.6-2c0.9,0.4,1.9,0.8,2.9,0.8c1.1,0,2.2-0.6,2.2-1.8c0-2.1-4-1.8-4-4.9c0-2.5,2.1-3.5,4.3-3.5
		c1,0,2.1,0.1,3,0.5L127.1,55.2z"/>
	<path class="st0" d="M130.8,53h2.4l-2.5,11.7h-2.4L130.8,53z"/>
	<path class="st0" d="M136.2,53h3.9l0.8,8.4h0l4.6-8.4h3.9l-2.5,11.7h-2.5l2.2-9.6h0l-5.3,9.6h-2.2l-0.9-9.6h0l-2.1,9.6h-2.2
		L136.2,53z"/>
	<path class="st0" d="M152.1,64.7h-2.3l2.5-11.7h2c2.2,0,5.1,0.1,5.1,3c0,2.8-2.3,4.2-4.9,4.2h-1.4L152.1,64.7z M153.5,58.4h0.8
		c1.3,0,2.6-0.7,2.6-2.1c0-1.2-1-1.4-2-1.4h-0.7L153.5,58.4z"/>
	<path class="st0" d="M161.9,53h2.3l-2.1,9.8h4.6l-0.4,1.8h-6.9L161.9,53z"/>
	<path class="st0" d="M169.6,59.8l-2.7-6.8h2.5l1.7,4.9l3.8-4.9h2.7l-5.6,6.8l-1,4.8h-2.3L169.6,59.8z"/>
	<path class="st0" d="M183.8,53h3.5c2.4,0,5.2,0.9,5.2,5c0,2.7-1.4,6.7-7.2,6.7h-3.9L183.8,53z M184.1,62.8h1.1c3.4,0,4.9-2,4.9-5.2
		c0-1.8-1.4-2.8-3.5-2.8h-0.8L184.1,62.8z"/>
	<path class="st0" d="M195.7,53h6.9l-0.4,1.8h-4.6l-0.6,2.9h4.1l-0.4,1.8h-4.1l-0.7,3.3h4.6l-0.4,1.8h-6.9L195.7,53z"/>
	<path class="st0" d="M204.9,53h2.3l-2.1,9.8h4.6l-0.4,1.8h-6.9L204.9,53z"/>
	<path class="st0" d="M213.2,53h2.4l-2.5,11.7h-2.4L213.2,53z"/>
	<path class="st0" d="M216.9,53h2.3l1.1,9.1h0l4.8-9.1h2.5l-6.5,11.7h-2.8L216.9,53z"/>
	<path class="st0" d="M229.1,53h6.9l-0.4,1.8h-4.6l-0.6,2.9h4.1l-0.4,1.8h-4.1l-0.7,3.3h4.6l-0.4,1.8h-6.9L229.1,53z"/>
	<path class="st0" d="M238.3,53h2.8c2.2,0,4.6,0,4.6,2.8c0,2-1.5,3.1-3.4,3.1v0c0.6,0,1,0.4,1.2,1.1l1.1,4.7h-2.5l-0.6-2.7
		c-0.3-1.2-0.2-2.1-1.5-2.1h-0.9l-1,4.8h-2.3L238.3,53z M239.7,58h0.9c1.3,0,2.8-0.4,2.8-1.9c0-1.2-1.1-1.2-2-1.2h-1L239.7,58z"/>
	<path class="st0" d="M248.8,53h6.9l-0.4,1.8h-4.6l-0.6,2.9h4.1l-0.4,1.8h-4.1l-0.7,3.3h4.6l-0.4,1.8h-6.9L248.8,53z"/>
	<path class="st0" d="M257.7,53h3.5c2.4,0,5.2,0.9,5.2,5c0,2.7-1.4,6.7-7.2,6.7h-3.9L257.7,53z M258,62.8h1.1c3.4,0,4.9-2,4.9-5.2
		c0-1.8-1.4-2.8-3.5-2.8h-0.8L258,62.8z"/>
	<path class="st0" d="M267.6,62.3h2.3l-0.5,2.3h-2.3L267.6,62.3z"/>
</g>
</svg>
