<?xml version="1.0" encoding="utf-8"?>
<!-- Generator: Adobe Illustrator 16.0.4, SVG Export Plug-In . SVG Version: 6.00 Build 0)  -->
<!DOCTYPE svg PUBLIC "-//W3C//DTD SVG 1.1//EN" "http://www.w3.org/Graphics/SVG/1.1/DTD/svg11.dtd">
<svg version="1.1" id="Layer_1" xmlns="http://www.w3.org/2000/svg" xmlns:xlink="http://www.w3.org/1999/xlink" x="0px" y="0px"
	 width="24px" height="24px" viewBox="0 0 24 24" enable-background="new 0 0 24 24" xml:space="preserve">
<g>
	<g>
		<path fill-rule="evenodd" clip-rule="evenodd" d="M4.681,13.508c0-0.273-0.225-0.494-0.502-0.494H1.002
			c-0.277,0-0.502,0.221-0.502,0.494c0,0.272,0.225,0.494,0.502,0.494h3.177C4.457,14.002,4.681,13.78,4.681,13.508z M1.002,11.006
			h3.177c0.277,0,0.502-0.221,0.502-0.495c0-0.274-0.225-0.495-0.502-0.495H1.002c-0.277,0-0.502,0.221-0.502,0.495
			C0.5,10.785,0.725,11.006,1.002,11.006z M5.726,16.503c0-0.272-0.225-0.494-0.501-0.494H2.047c-0.277,0-0.501,0.222-0.501,0.494
			c0,0.273,0.225,0.495,0.501,0.495h3.178C5.501,16.998,5.726,16.776,5.726,16.503z M3.092,8.011H6.27
			c0.277,0,0.502-0.222,0.502-0.495c0-0.274-0.225-0.496-0.502-0.496H3.092c-0.277,0-0.501,0.222-0.501,0.496
			C2.591,7.789,2.815,8.011,3.092,8.011z M13.849,4.173h0.644v0.292c0,0.324,0.288,0.586,0.644,0.586
			c0.354,0,0.644-0.262,0.644-0.586V4.173h0.644c0.177,0,0.321-0.132,0.321-0.294V3.293C16.744,3.132,16.6,3,16.423,3h-2.574
			c-0.178,0-0.321,0.132-0.321,0.293v0.586C13.527,4.042,13.671,4.173,13.849,4.173z M16.195,11.282
			c0.306,0.174,0.559,0.412,0.734,0.697l1.342-1.275l-0.732-0.696L16.195,11.282z M15.85,5.043
			c-0.176,0.182-0.427,0.302-0.714,0.302c-0.288,0-0.539-0.12-0.716-0.302c-4.284,0.348-7.649,3.775-7.649,7.961
			c0,4.415,3.746,7.995,8.365,7.995c4.62,0,8.364-3.58,8.364-7.995C23.5,8.818,20.135,5.39,15.85,5.043z M15.119,19.988
			c-4.045,0-7.323-3.127-7.323-6.983c0-3.857,3.278-6.985,7.323-6.985c4.044,0,7.322,3.127,7.322,6.985
			C22.441,16.861,19.163,19.988,15.119,19.988z M15.139,11.775c-0.696,0-1.261,0.541-1.261,1.21c0,0.668,0.564,1.209,1.261,1.209
			s1.26-0.541,1.26-1.209C16.398,12.316,15.835,11.775,15.139,11.775z M7.315,19.005H4.138c-0.277,0-0.502,0.222-0.502,0.494
			c0,0.273,0.225,0.494,0.502,0.494h3.177c0.277,0,0.501-0.221,0.501-0.494C7.816,19.227,7.592,19.005,7.315,19.005z"/>
	</g>
</g>
</svg>
