<?xml version="1.0" encoding="utf-8"?>
<!-- Generator: Adobe Illustrator 16.0.4, SVG Export Plug-In . SVG Version: 6.00 Build 0)  -->
<!DOCTYPE svg PUBLIC "-//W3C//DTD SVG 1.1//EN" "http://www.w3.org/Graphics/SVG/1.1/DTD/svg11.dtd">
<svg version="1.1" id="Layer_1" xmlns="http://www.w3.org/2000/svg" xmlns:xlink="http://www.w3.org/1999/xlink" x="0px" y="0px"
	 width="24px" height="24px" viewBox="0 0 24 24" enable-background="new 0 0 24 24" xml:space="preserve">
<path fill-rule="evenodd" clip-rule="evenodd" fill="#666766" d="M19,22H5c-1.104,0-2-0.896-2-2V9c0-1.104,0.896-2,2-2h3v1h0.625V2
	h0.75v6H10V7h4v1h0.625V2h0.75v6H16V7h3c1.104,0,2,0.896,2,2v11C21,21.104,20.104,22,19,22z M20,9c0-0.552-0.447-1-1-1h-2
	c0,0.552-0.447,1-1,1h-2c-0.553,0-1-0.448-1-1h-2c0,0.552-0.448,1-1,1H8C7.448,9,7,8.552,7,8H5C4.448,8,4,8.448,4,9v10
	c0,0.553,0.448,1,1,1h14c0.553,0,1-0.447,1-1V9z M15,13h-0.625v4h-0.75v-4H13c-0.552,0-1-0.447-1-1c0-0.552,0.448-1,1-1h2
	c0.553,0,1,0.448,1,1C16,12.553,15.553,13,15,13z M11,13h-0.625v4h-0.75v-4H9c-0.552,0-1-0.447-1-1c0-0.552,0.448-1,1-1h2
	c0.552,0,1,0.448,1,1C12,12.553,11.552,13,11,13z"/>
</svg>
