<?xml version="1.0" encoding="utf-8"?>
<!-- Generator: Adobe Illustrator 16.0.4, SVG Export Plug-In . SVG Version: 6.00 Build 0)  -->
<!DOCTYPE svg PUBLIC "-//W3C//DTD SVG 1.1//EN" "http://www.w3.org/Graphics/SVG/1.1/DTD/svg11.dtd">
<svg version="1.1" id="Layer_1" xmlns="http://www.w3.org/2000/svg" xmlns:xlink="http://www.w3.org/1999/xlink" x="0px" y="0px"
	 width="24px" height="24px" viewBox="0 0 24 24" enable-background="new 0 0 24 24" xml:space="preserve">
<path fill-rule="evenodd" clip-rule="evenodd" fill="#666766" d="M15,22H9c-1.104,0-2-0.896-2-2v-6V9V8h0.101
	c0.229-1.337,0.905-3.233,2.493-4c0.52-0.251,0.863-0.726,1.081-1.15c-0.088-0.09-0.144-0.213-0.144-0.35
	c0-0.265,0.207-0.476,0.467-0.493C10.999,2.006,11,2,11,2h0.031H13h0.031c0.276,0,0.5,0.224,0.5,0.5c0,0.181-0.101,0.332-0.245,0.42
	c0.207,0.444,0.551,0.916,1.12,1.08c1.471,0.425,2.221,2.558,2.48,4H17v1v5v6C17,21.104,16.104,22,15,22z M12.006,3.991
	c-0.771,0-3.457,0.838-3.931,4.009h7.82C15.419,4.829,12.727,3.991,12.006,3.991z M9,11.5c0,0.829,0.671,1.5,1.5,1.5
	s1.5-0.671,1.5-1.5S11.329,10,10.5,10S9,10.671,9,11.5z M13,9.5c0,0.276,0.224,0.5,0.5,0.5S14,9.776,14,9.5S13.776,9,13.5,9
	S13,9.224,13,9.5z M14,11.5c0,0.276,0.224,0.5,0.5,0.5s0.5-0.224,0.5-0.5S14.776,11,14.5,11S14,11.224,14,11.5z M7.996,14v5.982
	c0,0.553,0.448,1,1,1h5.978c0.553,0,1-0.447,1-1V14H7.996z"/>
</svg>
