<?xml version="1.0" encoding="utf-8"?>
<!-- Generator: Adobe Illustrator 16.0.4, SVG Export Plug-In . SVG Version: 6.00 Build 0)  -->
<!DOCTYPE svg PUBLIC "-//W3C//DTD SVG 1.1//EN" "http://www.w3.org/Graphics/SVG/1.1/DTD/svg11.dtd">
<svg version="1.1" id="Layer_1" xmlns="http://www.w3.org/2000/svg" xmlns:xlink="http://www.w3.org/1999/xlink" x="0px" y="0px"
	 width="24px" height="24px" viewBox="0 0 24 24" enable-background="new 0 0 24 24" xml:space="preserve">
<path fill-rule="evenodd" clip-rule="evenodd" fill="#666766" d="M21.821,9.577c0,0-1.314,6.325-6.04,9.034
	C11.054,21.32,4.983,19.23,4.983,19.23c-2.215-0.506-3.47-2.665-2.804-4.822c0,0,1.302-6.317,6.013-9.018
	c4.711-2.701,10.826-0.635,10.826-0.635C21.232,5.261,22.487,7.419,21.821,9.577z M5.625,18.402c0,0,5.36,1.702,9.614-0.736
	c4.254-2.438,5.541-7.951,5.541-7.951c0.157-0.468,0.208-0.934,0.167-1.375c-1.264,1.059-4.378,3.56-7.831,5.54
	c-3.474,1.991-7.278,3.432-8.786,3.972C4.698,18.11,5.134,18.303,5.625,18.402z M18.378,5.582c0,0-1.772-0.545-4.082-0.557
	l0.82,1.411L14.167,6.98l-1.108-1.906c-0.745,0.062-1.52,0.188-2.291,0.413l1.501,2.582l-0.949,0.544L9.717,5.856
	c-0.331,0.14-0.658,0.292-0.979,0.476C8.413,6.519,8.109,6.726,7.819,6.945L9.421,9.7l-0.949,0.544l-1.5-2.579
	C6.393,8.215,5.89,8.813,5.462,9.423l1.111,1.91l-0.949,0.544L4.8,10.46c-1.155,2.001-1.578,3.81-1.578,3.81
	c-0.333,0.989-0.185,1.963,0.307,2.729c1.288-0.452,5.344-1.943,9.039-4.062c3.648-2.092,6.938-4.782,8.041-5.715
	C20.188,6.411,19.411,5.791,18.378,5.582z"/>
</svg>
