<?xml version="1.0" encoding="utf-8"?>
<!-- Generator: Adobe Illustrator 16.0.4, SVG Export Plug-In . SVG Version: 6.00 Build 0)  -->
<!DOCTYPE svg PUBLIC "-//W3C//DTD SVG 1.1//EN" "http://www.w3.org/Graphics/SVG/1.1/DTD/svg11.dtd">
<svg version="1.1" id="Layer_1" xmlns="http://www.w3.org/2000/svg" xmlns:xlink="http://www.w3.org/1999/xlink" x="0px" y="0px"
	 width="24px" height="24px" viewBox="0 0 24 24" enable-background="new 0 0 24 24" xml:space="preserve">
<path fill-rule="evenodd" clip-rule="evenodd" fill="#666766" d="M12,20c-4.418,0-8-3.582-8-8c0-4.418,3.582-8,8-8
	c4.418,0,8,3.582,8,8C20,16.418,16.418,20,12,20z M17.09,8.308l0.139,0.106l-0.606,0.795l-0.029-0.022
	c-0.132,0.297-0.215,0.618-0.304,0.936l0.247,0.015l-0.051,0.999l-0.393-0.024c-0.033,0.258-0.077,0.514-0.082,0.781l0.475-0.03
	l0.051,0.999l-0.443,0.027c0.051,0.387,0.129,0.759,0.239,1.122l0.29-0.221l0.606,0.795l-0.534,0.407
	c0.221,0.462,0.494,0.889,0.807,1.288C18.427,15.095,19,13.621,19,12s-0.573-3.095-1.499-4.282
	C17.353,7.908,17.218,8.104,17.09,8.308z M6.499,7.718C5.574,8.905,5,10.379,5,12s0.574,3.095,1.499,4.281
	c0.312-0.399,0.586-0.826,0.807-1.288l-0.534-0.407l0.606-0.795l0.29,0.221c0.11-0.363,0.189-0.736,0.239-1.123l-0.443-0.026
	l0.05-0.999l0.475,0.029c-0.004-0.267-0.048-0.521-0.082-0.779l-0.393,0.024l-0.05-0.999l0.248-0.015
	C7.622,9.805,7.539,9.484,7.408,9.187L7.378,9.209L6.772,8.414L6.91,8.308C6.782,8.104,6.647,7.908,6.499,7.718z M7.18,6.943
	C7.375,7.18,7.555,7.43,7.722,7.689l0.645-0.492l0.606,0.795L8.216,8.57c0.227,0.473,0.406,0.971,0.536,1.49l0.642-0.039l0.05,0.999
	l-0.505,0.03c0.036,0.296,0.057,0.597,0.059,0.902l0.447,0.027l-0.05,0.999l-0.455-0.027c-0.071,0.597-0.211,1.171-0.407,1.72
	l0.442,0.337l-0.606,0.795l-0.245-0.187c-0.263,0.515-0.578,0.998-0.942,1.441C8.437,18.255,10.128,19,12,19
	s3.563-0.745,4.819-1.942c-0.363-0.443-0.679-0.927-0.941-1.441l-0.245,0.187l-0.606-0.795l0.441-0.337
	c-0.195-0.548-0.335-1.121-0.406-1.717l-0.394,0.024l-0.05-0.999l0.384-0.024c0.002-0.307,0.023-0.609,0.06-0.908l-0.443-0.027
	l0.05-0.999l0.581,0.036c0.13-0.518,0.31-1.015,0.535-1.487l-0.758-0.578l0.606-0.795l0.645,0.492
	c0.168-0.259,0.347-0.509,0.542-0.746C15.563,5.746,13.872,5,12,5S8.437,5.746,7.18,6.943z"/>
</svg>
